<svg width="288" height="72" viewBox="0 0 288 72" fill="none" xmlns="http://www.w3.org/2000/svg">
<g clip-path="url(#clip0_4340_21660)">
<path d="M58.1639 37.6902C58.1658 36.9832 58.0082 36.2849 57.7027 35.6472C57.3973 35.0096 56.9519 34.4491 56.3998 34.0074L37.6385 19.0061L37.3424 16.5853C37.2246 15.5137 37.0353 14.4512 36.7758 13.4048C35.9663 9.74788 34.253 6.35225 31.7925 3.52838C29.2172 0.695517 26.101 -0.502001 23.1909 0.180462C20.2808 0.862925 18.0402 3.32237 17.023 7.08235C16.0953 10.7023 16.0953 14.4977 17.023 18.1176C17.2545 19.1105 17.5514 20.0869 17.9115 21.0407L1.71264 34.0074C0.746858 34.791 0.131021 35.9255 3.96818e-05 37.1622C-0.116384 38.1852 0.11007 39.2178 0.643873 40.0981L1.04305 40.6003L1.4036 41.051C2.27439 41.8812 3.43248 42.3426 4.63564 42.3386H6.91481V66.0188C6.91819 67.4841 7.50087 68.8885 8.53574 69.9258C9.5706 70.9631 10.9737 71.549 12.4389 71.5558H45.5706C47.037 71.549 48.4414 70.9635 49.4783 69.9266C50.5152 68.8897 51.1007 67.4852 51.1075 66.0188V42.3386H53.3867C54.0056 42.3472 54.6201 42.2337 55.1952 42.0047C55.7702 41.7757 56.2945 41.4356 56.7382 41.0039C57.1818 40.5723 57.536 40.0575 57.7807 39.4889C58.0253 38.9203 58.1555 38.3091 58.1639 37.6902ZM25.3413 15.1303L22.3411 17.5768C22.3411 17.3708 22.2509 17.1648 22.1865 16.933C21.7597 15.2069 21.5691 13.4309 21.62 11.6536C21.62 11.4218 21.62 11.2544 21.62 11.1643C21.6807 10.3146 21.8274 9.47335 22.0578 8.65331C22.56 6.85058 23.4098 5.69167 24.3756 5.44701C24.5126 5.43374 24.6506 5.43374 24.7876 5.44701C26.0249 5.62616 27.1408 6.28826 27.8909 7.28837C29.6861 9.37816 30.9418 11.8762 31.5479 14.5637C30.5618 14.0764 29.4601 13.8714 28.3647 13.9714C27.2693 14.0714 26.2229 14.4725 25.3413 15.1303Z" fill="#343434"/>
<path d="M27.4014 59.5803H20.6025V52.8973H27.4529V59.5803H27.4014ZM27.4014 42.7119H20.6025V49.3949H27.4529V42.7119H27.4014ZM37.5997 52.8973H30.7493V59.5803H37.5869V52.8973H37.5997ZM37.5997 42.7119H30.7493V49.3949H37.5869V42.7119H37.5997Z" fill="white"/>
<path d="M56.3998 34.0074L37.6385 19.0061L37.3424 16.5853C37.2246 15.5137 37.0353 14.4512 36.7758 13.4048C35.9663 9.74788 34.253 6.35225 31.7925 3.52838C29.2172 0.695517 26.101 -0.502001 23.1909 0.180462C20.2808 0.862925 18.0402 3.32237 17.023 7.08235C16.0953 10.7023 16.0953 14.4977 17.023 18.1176C17.2545 19.1105 17.5514 20.0869 17.9115 21.0407L1.71264 34.0074C0.746858 34.791 0.131021 35.9255 3.96818e-05 37.1622C-0.116384 38.1852 0.11007 39.2178 0.643873 40.0981L1.04305 40.6003L1.4036 41.051C2.27439 41.8812 3.43248 42.3426 4.63564 42.3386H6.91481V66.0188C6.91819 67.4841 7.50087 68.8885 8.53574 69.9258C9.5706 70.9631 10.9737 71.549 12.4389 71.5558H45.5706C47.037 71.549 48.4414 70.9635 49.4783 69.9266C50.5152 68.8897 51.1007 67.4852 51.1075 66.0188V42.3386H53.3867C54.6344 42.3386 55.8312 41.8439 56.7146 40.9628C57.5981 40.0818 58.0961 38.8864 58.0995 37.6387C58.1015 36.9455 57.9502 36.2605 57.6563 35.6327C57.3625 35.0049 56.9334 34.4499 56.3998 34.0074ZM21.6328 11.0741C21.6936 10.2245 21.8402 9.38321 22.0706 8.56316C22.5728 6.76043 23.4227 5.60152 24.3884 5.35687C24.5255 5.3436 24.6635 5.3436 24.8005 5.35687C26.0378 5.53601 27.1536 6.19814 27.9038 7.19824C29.699 9.28804 30.9546 11.786 31.5607 14.4735C30.5536 14.0036 29.4352 13.8245 28.3317 13.9564C27.2281 14.0884 26.1835 14.5262 25.3156 15.2204L22.3411 17.5768C22.3411 17.3708 22.2509 17.1648 22.1865 16.933C21.7597 15.2069 21.5691 13.4309 21.62 11.6536C21.62 11.4218 21.62 11.2544 21.62 11.1643L21.6328 11.0741ZM48.5193 37.1236C47.8424 37.143 47.1986 37.4206 46.7198 37.8994C46.241 38.3783 45.9634 39.0221 45.944 39.6989V66.0188C45.944 66.0871 45.9168 66.1526 45.8685 66.2009C45.8202 66.2492 45.7547 66.2764 45.6864 66.2764H12.5162C12.4813 66.2781 12.4464 66.2727 12.4136 66.2606C12.3809 66.2484 12.351 66.2297 12.3257 66.2056C12.3004 66.1815 12.2802 66.1526 12.2665 66.1204C12.2528 66.0883 12.2457 66.0538 12.2457 66.0188V39.6861C12.2263 39.0092 11.9487 38.3654 11.4699 37.8866C10.9911 37.4077 10.3473 37.1302 9.67041 37.1107H6.43837L20.4224 25.8565C20.9248 26.5993 21.4799 27.3051 22.0835 27.9683C22.5337 28.459 23.0201 28.9153 23.5386 29.3332L23.6802 29.4491V29.5392C23.6802 29.6165 23.6802 29.7324 23.6802 29.874C23.6802 30.0157 23.6802 30.0543 23.6802 30.1573C23.6802 30.2603 23.7446 30.4406 23.7832 30.608C23.8399 30.8263 23.9087 31.0412 23.9893 31.2518C24.3962 32.2579 25.0938 33.1198 25.9928 33.7276C26.8919 34.3354 27.9517 34.6615 29.0369 34.6642C29.7535 34.6686 30.4639 34.5309 31.127 34.2591C31.7901 33.9872 32.3927 33.5866 32.8999 33.0803C33.4096 32.575 33.8134 31.9731 34.0876 31.3097C34.3617 30.6464 34.5008 29.9351 34.4966 29.2173C34.5001 28.4997 34.3607 27.7886 34.0866 27.1253C33.8124 26.4621 33.409 25.8601 32.8999 25.3543C32.3935 24.8469 31.7911 24.4455 31.1278 24.1736C30.4646 23.9017 29.7537 23.7646 29.0369 23.7705C27.9064 23.769 26.8037 24.1201 25.8821 24.7749C25.311 24.1046 24.7943 23.3898 24.3369 22.6373L28.6249 19.1864C28.7435 19.0857 28.8941 19.0304 29.0498 19.0304C29.2054 19.0304 29.356 19.0857 29.4747 19.1864L51.8157 37.0721L48.5193 37.1236Z" fill="#308DFF"/>
<path d="M111.679 67.5764C110.568 67.5853 109.47 67.3339 108.473 66.8424C107.489 66.3221 106.679 65.5254 106.142 64.5504C105.553 63.4097 105.265 62.1378 105.305 60.8548C105.246 59.8815 105.435 58.9093 105.854 58.0288C106.273 57.1484 106.908 56.3884 107.7 55.82C108.202 55.4833 108.737 55.1985 109.297 54.9701L106.876 49.3302L107.687 48.9052C108.868 48.3191 110.118 47.8863 111.409 47.6176C112.885 47.3273 114.386 47.185 115.89 47.1926C118.034 47.0763 120.145 47.76 121.813 49.1113C122.566 49.8048 123.156 50.6562 123.541 51.6045C123.926 52.5529 124.097 53.5747 124.041 54.5967V67.2416H118.259L117.396 65.529C117.135 65.7797 116.86 66.0161 116.572 66.2372C115.926 66.7067 115.196 67.0476 114.422 67.2416C113.526 67.4737 112.604 67.5863 111.679 67.5764ZM115.619 59.3611C114.981 59.3221 114.343 59.4602 113.778 59.7602C113.672 59.8487 113.589 59.962 113.538 60.09C113.486 60.2181 113.467 60.3569 113.482 60.4942C113.464 60.7175 113.523 60.9402 113.649 61.1252C113.832 61.2668 114.063 61.3315 114.293 61.3055C114.767 61.3276 115.23 61.1609 115.581 60.8419C115.738 60.7023 115.863 60.5293 115.945 60.3355C116.028 60.1418 116.066 59.932 116.057 59.7216V59.3482L115.619 59.3611ZM114.795 53.4764C114.088 53.4934 113.386 53.6061 112.709 53.8112C111.986 54.0141 111.276 54.2635 110.585 54.5581C111.685 54.2852 112.812 54.1298 113.945 54.0945L115.916 54.0301C115.885 53.923 115.827 53.8255 115.748 53.7468C115.475 53.5417 115.135 53.4454 114.795 53.4764ZM72.4697 67.6408C70.3012 67.6826 68.1546 67.2012 66.2116 66.2372C64.3582 65.2855 62.8496 63.777 61.898 61.9235C60.814 59.6883 60.2966 57.2207 60.3914 54.7384C60.3373 52.4181 60.85 50.1197 61.8851 48.0425C62.8821 46.1309 64.4417 44.5713 66.3533 43.5743C68.5407 42.4957 70.959 41.9695 73.3968 42.042C74.8369 42.0359 76.2738 42.1783 77.6848 42.4669C78.9049 42.7108 80.096 43.0819 81.2387 43.5743L82.1015 43.9477L79.3974 50.6565L78.4574 50.1929C77.708 49.821 76.917 49.54 76.1009 49.3559C75.2267 49.1557 74.3323 49.0564 73.4355 49.0597C72.4648 49.0082 71.5032 49.27 70.6927 49.8066C70.0068 50.3214 69.4909 51.0301 69.2119 51.8411C68.8757 52.8315 68.7145 53.8729 68.7355 54.9186C68.7043 56.0281 68.8834 57.1335 69.2634 58.1764C69.541 58.9004 70.0301 59.524 70.667 59.9663C71.3663 60.383 72.1712 60.5887 72.9848 60.5586C73.4151 60.5561 73.8449 60.5303 74.2724 60.4814H74.6201V58.6657H70.4609V51.9312H82.3075V65.9797L81.6636 66.1986C80.2861 66.6591 78.8737 67.0079 77.4401 67.2416C75.7949 67.486 74.1328 67.5979 72.4697 67.5764V67.6408ZM141.45 67.3189V47.5789H147.682L148.352 49.5877C148.506 49.4203 148.661 49.2529 148.828 49.0984C149.413 48.5677 150.078 48.1331 150.798 47.8107C151.556 47.432 152.386 47.2212 153.232 47.1926C153.629 47.1922 154.025 47.2224 154.417 47.2828L155.267 47.3987L156.142 47.5532L155.408 55.3693L154.301 55.0731C154.097 55.0293 153.891 54.9992 153.683 54.983C153.255 54.9331 152.825 54.9116 152.395 54.9186C152.032 54.9234 151.671 54.9578 151.314 55.0216C150.989 55.0758 150.678 55.194 150.399 55.3693C150.135 55.5325 149.925 55.7699 149.794 56.0518C149.59 56.513 149.497 57.0159 149.524 57.5197V67.2416L141.45 67.3189ZM126.333 67.3189V47.5789H132.629L133.299 49.5877C133.454 49.4203 133.608 49.2529 133.775 49.0984C134.358 48.5649 135.023 48.1299 135.746 47.8107C136.492 47.4808 137.299 47.3098 138.115 47.3085C138.512 47.3081 138.908 47.3383 139.3 47.3987L140.149 47.5145L141.025 47.6691L140.278 55.4852L139.184 55.189C138.98 55.1461 138.773 55.116 138.566 55.0989C138.138 55.049 137.708 55.0275 137.278 55.0345C136.915 55.0393 136.553 55.0737 136.196 55.1375C135.868 55.1924 135.553 55.3104 135.269 55.4852C135.012 55.6531 134.807 55.8894 134.677 56.1677C134.473 56.6289 134.38 57.1318 134.406 57.6356V67.3575L126.333 67.3189ZM95.9052 67.3189V56.6441C95.9646 55.8934 95.8317 55.14 95.5189 54.4551C95.4526 54.3137 95.3437 54.1967 95.2074 54.1205C95.0711 54.0443 94.9144 54.0127 94.7592 54.0301C94.5639 54.0136 94.3672 54.037 94.1812 54.099C93.9953 54.161 93.8239 54.2602 93.6776 54.3907C93.3309 54.7774 93.1029 55.2557 93.0209 55.7685C92.8462 56.6764 92.7642 57.5996 92.7762 58.5241V67.3189H84.7025V40.9346H92.7762V45.377C92.7762 46.5359 92.7762 47.5532 92.7118 48.4159C93.2651 48.0137 93.89 47.7208 94.5532 47.5532C95.2704 47.3568 96.0115 47.2615 96.7551 47.2699C97.9955 47.2542 99.2234 47.5183 100.348 48.0425C101.46 48.5678 102.389 49.4158 103.013 50.4762C103.709 51.7766 104.047 53.2387 103.992 54.7126V67.2545L95.9052 67.3189Z" fill="#343434"/>
<path d="M91.8106 41.8365V45.3132C91.8106 46.6009 91.8106 47.734 91.7205 48.6354C91.6303 49.5368 91.6175 50.2064 91.5659 50.6828H91.8492C92.186 50.1158 92.6222 49.6142 93.1369 49.202C93.6312 48.8454 94.1849 48.5795 94.7722 48.4165C95.4105 48.2465 96.069 48.1642 96.7295 48.1718C97.8224 48.1529 98.9054 48.3819 99.8971 48.8414C100.858 49.2973 101.654 50.0395 102.176 50.9661C102.79 52.1164 103.084 53.4106 103.026 54.7132V66.3022H96.8454V56.5932C96.9019 55.6713 96.7248 54.75 96.3303 53.9148C96.177 53.6287 95.9454 53.3921 95.6627 53.2325C95.3801 53.0729 95.0578 52.9969 94.7336 53.0135C94.4111 52.9933 94.0878 53.0401 93.7842 53.1509C93.4807 53.2617 93.2033 53.4341 92.9695 53.6573C92.4897 54.1725 92.1717 54.8172 92.0553 55.5115C91.8582 56.4861 91.7676 57.4791 91.7849 58.4732V66.3022H85.6684V41.8365H91.8106ZM73.397 42.9825C74.7724 42.9785 76.1447 43.1166 77.4918 43.3946C78.6436 43.6251 79.7694 43.9702 80.8526 44.4247L78.8824 49.305C78.0654 48.8941 77.2003 48.587 76.3071 48.3907C75.3652 48.1748 74.4019 48.0668 73.4356 48.0688C72.2571 48.0108 71.0915 48.336 70.1134 48.9959C69.2802 49.628 68.6528 50.4928 68.3107 51.4811C67.9231 52.5848 67.7399 53.7499 67.7699 54.9192C67.7338 56.1521 67.9349 57.3805 68.3622 58.5375C68.7176 59.4415 69.3368 60.2177 70.1392 60.7652C70.9936 61.2901 71.9826 61.5541 72.9849 61.5249C73.3583 61.5249 73.7962 61.5249 74.2726 61.4477C74.6807 61.4168 75.0855 61.3522 75.483 61.2545V57.6619H71.4268V52.8589H81.3419V65.2205C80.0159 65.6683 78.6549 66.0043 77.2729 66.2249C75.6854 66.4871 74.0788 66.6163 72.4699 66.6112C70.4548 66.6525 68.4592 66.2109 66.6496 65.3236C64.9988 64.459 63.6511 63.1114 62.7866 61.4606C61.7912 59.3821 61.314 57.0935 61.3959 54.7904C61.3195 52.6094 61.7793 50.4429 62.7351 48.4809C63.6444 46.7411 65.0643 45.3212 66.8041 44.4118C68.851 43.401 71.1153 42.9101 73.397 42.9825ZM153.142 48.1332C153.495 48.1348 153.848 48.1606 154.198 48.2105L155.009 48.3135L154.52 54.1595C154.27 54.1006 154.016 54.0576 153.76 54.0307C153.333 53.9851 152.903 53.9636 152.473 53.9663C152.041 53.9659 151.61 54.0047 151.185 54.0822C150.729 54.1499 150.292 54.3075 149.897 54.5458C149.485 54.8082 149.151 55.1775 148.931 55.6145C148.659 56.2162 148.531 56.8733 148.558 57.5332V66.2893H142.416V48.4809H146.987L147.953 51.3266H148.249C148.59 50.7327 149.025 50.1978 149.537 49.7428C150.038 49.2657 150.617 48.8781 151.249 48.5968C151.869 48.3185 152.54 48.1737 153.219 48.1718M138.102 48.1718C138.451 48.1729 138.8 48.1987 139.145 48.2491L139.969 48.3521L139.416 54.1595C139.161 54.0997 138.903 54.0567 138.643 54.0307C138.215 53.9842 137.785 53.9627 137.355 53.9663C136.924 53.9667 136.493 54.0055 136.068 54.0822C135.612 54.1506 135.175 54.3081 134.78 54.5458C134.363 54.8029 134.028 55.1737 133.814 55.6145C133.542 56.2162 133.414 56.8733 133.441 57.5332V66.2893H127.299V48.4809H131.87L132.823 51.3266H133.119C133.465 50.7361 133.899 50.202 134.407 49.7428C134.908 49.2657 135.487 48.8781 136.119 48.5968C136.738 48.3174 137.41 48.1725 138.089 48.1718M115.967 48.1718C117.873 48.0582 119.754 48.6545 121.247 49.8458C121.897 50.4496 122.405 51.1902 122.735 52.014C123.064 52.8378 123.207 53.7245 123.152 54.6102V66.2893H118.852L117.667 63.9329H117.551C117.098 64.511 116.575 65.0301 115.993 65.4781C115.447 65.8731 114.831 66.1614 114.177 66.3279C113.36 66.5298 112.521 66.625 111.679 66.6112C110.724 66.6224 109.779 66.4061 108.924 65.9803C108.099 65.5546 107.421 64.8905 106.979 64.0745C106.477 63.0778 106.234 61.9708 106.271 60.8554C106.216 60.0372 106.369 59.2184 106.715 58.4754C107.062 57.7323 107.592 57.0892 108.254 56.606C109.989 55.5681 111.976 55.029 113.997 55.048L116.972 54.9578V54.7132C117.003 54.4027 116.964 54.0893 116.86 53.7954C116.755 53.5015 116.587 53.2345 116.366 53.0135C115.921 52.6602 115.363 52.4816 114.795 52.5113C113.996 52.5229 113.203 52.6487 112.439 52.8847C111.559 53.1356 110.698 53.4498 109.864 53.8247L108.074 49.7685C109.18 49.2223 110.353 48.824 111.563 48.5839C113 48.2917 114.463 48.1535 115.929 48.1718M114.293 62.3362C114.995 62.3478 115.675 62.095 116.199 61.628C116.459 61.3987 116.666 61.1148 116.804 60.7965C116.942 60.4782 117.008 60.1334 116.997 59.7866V58.4088H115.581C114.745 58.3722 113.916 58.5827 113.199 59.014C112.972 59.1889 112.792 59.4164 112.673 59.6766C112.554 59.9368 112.5 60.222 112.516 60.5077C112.507 60.7442 112.545 60.9803 112.629 61.2017C112.713 61.423 112.841 61.6249 113.006 61.7953C113.368 62.0911 113.826 62.2425 114.293 62.2203M93.6906 39.8535H83.6983V68.1822H93.7421V58.4217C93.7231 57.5573 93.8008 56.6934 93.9739 55.8463C94.0063 55.5194 94.1364 55.2098 94.3473 54.9578C94.4515 54.8828 94.5806 54.8505 94.7079 54.8677C94.8971 55.3955 94.976 55.9564 94.9396 56.5159V68.1049H104.983V64.2419C105.071 64.4637 105.174 64.6789 105.292 64.8858C105.914 66.0363 106.87 66.9705 108.035 67.5641C109.163 68.1378 110.414 68.4294 111.679 68.4139C112.7 68.4338 113.718 68.3125 114.705 68.0534C115.561 67.8335 116.368 67.4581 117.087 66.946V67.0233L117.615 68.092H125.007V54.4814C125.064 53.3207 124.863 52.1617 124.417 51.0883C123.972 50.0149 123.294 49.0539 122.431 48.2748C120.578 46.8103 118.247 46.0854 115.89 46.2403C114.291 46.2279 112.694 46.379 111.126 46.691C109.745 46.9678 108.407 47.4268 107.147 48.0559L105.537 48.88L106.258 50.5412L107.984 54.4943C107.683 54.655 107.391 54.8312 107.108 55.0222C106.169 55.671 105.422 56.5606 104.945 57.5976V54.6745C105.006 53.0269 104.619 51.3936 103.825 49.9488C103.109 48.6886 102.02 47.681 100.708 47.0644C99.4613 46.4752 98.0957 46.1801 96.7166 46.2017C95.8816 46.194 95.0495 46.3023 94.2443 46.5236L93.6906 46.691C93.6906 46.2403 93.6906 45.7768 93.6906 45.2746V39.8664V39.8535ZM73.397 41.051C70.7908 40.9821 68.2079 41.5571 65.877 42.725C63.7894 43.8143 62.0861 45.5177 60.9967 47.6053C59.8944 49.8187 59.3464 52.2668 59.4 54.7389C59.3151 57.3573 59.8721 59.9567 61.0225 62.3104C62.0694 64.3333 63.7153 65.9837 65.7354 67.0362C67.8201 68.0642 70.1199 68.5807 72.4441 68.5427C74.1694 68.5465 75.892 68.4087 77.5948 68.1307C79.0816 67.8919 80.5459 67.5302 81.9728 67.049L83.2605 66.5984V50.9017H80.3504L80.698 50.0261L82.6682 45.1458L83.3635 43.4075L81.6509 42.6606C80.4499 42.1454 79.1984 41.757 77.9167 41.5017C76.4381 41.1976 74.9322 41.0466 73.4227 41.051H73.397ZM70.8216 50.9017C70.9424 50.7724 71.0762 50.6559 71.2208 50.554C71.8655 50.146 72.6227 49.9522 73.3841 50.0003C74.2031 49.9947 75.02 50.0855 75.8178 50.2707C76.4689 50.4148 77.1033 50.6262 77.7107 50.9017H70.8989H70.8216ZM153.232 46.2403C152.286 46.2383 151.351 46.4403 150.49 46.8327C149.907 47.0861 149.358 47.4105 148.854 47.7984L148.442 46.5107H140.793L140.253 46.4206L139.313 46.2918C138.886 46.2275 138.456 46.1974 138.025 46.2017C137.075 46.201 136.135 46.4029 135.269 46.794C134.692 47.0503 134.147 47.3745 133.647 47.7598L133.235 46.4721H125.367V68.1435H135.372V57.4945C135.356 57.1538 135.404 56.813 135.514 56.4902C135.574 56.3683 135.657 56.259 135.759 56.1682C135.94 56.0584 136.141 55.9841 136.351 55.9493C136.656 55.8899 136.967 55.8597 137.278 55.8592C137.63 55.8311 137.983 55.8311 138.334 55.8592L138.875 55.9365L140.484 56.3614V68.1307H150.49V57.4945C150.465 57.1524 150.518 56.8091 150.644 56.4902C150.7 56.3655 150.784 56.2553 150.889 56.1682C151.065 56.0566 151.262 55.9821 151.468 55.9493C151.774 55.8899 152.084 55.8597 152.395 55.8592C152.751 55.8308 153.108 55.8308 153.464 55.8592L153.992 55.9365L156.194 56.5159L156.413 54.2496L156.954 48.4551L157.121 46.6782L155.37 46.3691L154.443 46.2403C154.016 46.1767 153.586 46.1466 153.155 46.1502L153.232 46.2403Z" fill="white"/>
<path d="M182.965 67.5769C181.649 67.5804 180.342 67.3583 179.102 66.9202C177.925 66.4732 176.854 65.7845 175.96 64.8986C175.024 63.9839 174.299 62.8767 173.835 61.6537C173.342 60.2744 173.102 58.8174 173.127 57.3529C173.073 55.4679 173.479 53.5982 174.311 51.906C175.087 50.409 176.3 49.183 177.788 48.3907C179.416 47.5705 181.22 47.1637 183.042 47.2061C184.784 47.1795 186.505 47.5866 188.051 48.3907C189.54 49.1828 190.763 50.3966 191.566 51.8803C192.455 53.5648 192.898 55.4487 192.854 57.3529C192.872 58.8053 192.646 60.2505 192.184 61.6279C191.766 62.8509 191.085 63.9673 190.188 64.8986C189.288 65.79 188.208 66.4792 187.021 66.9202C185.717 67.372 184.344 67.5941 182.965 67.5769ZM182.965 53.7088C182.724 53.6859 182.482 53.7363 182.27 53.8535C182.059 53.9708 181.888 54.1492 181.78 54.3655C181.396 55.3123 181.229 56.333 181.291 57.3529C181.276 58.1404 181.354 58.927 181.522 59.6964C181.608 60.1165 181.808 60.5044 182.102 60.8167C182.354 61.0142 182.671 61.1106 182.99 61.0871C183.302 61.1118 183.611 61.0149 183.853 60.8167C184.134 60.5006 184.321 60.1128 184.394 59.6964C184.574 58.9287 184.656 58.1412 184.638 57.3529C184.659 56.5771 184.576 55.8022 184.394 55.048C184.328 54.6445 184.139 54.2712 183.853 53.9792C183.611 53.7907 183.31 53.6948 183.003 53.7088H182.965ZM194.438 67.255V47.5151H200.67L201.352 49.5239C201.497 49.3514 201.652 49.188 201.816 49.0345C202.405 48.5036 203.074 48.069 203.799 47.7469C204.541 47.4173 205.344 47.2463 206.155 47.2447C206.552 47.2443 206.948 47.2744 207.34 47.3348L208.19 47.4507L209.078 47.6052L208.332 55.4214L207.237 55.1252C207.029 55.0824 206.818 55.0523 206.606 55.0351C206.2 54.9882 205.792 54.9667 205.383 54.9707C205.02 54.9754 204.658 55.0099 204.301 55.0737C203.976 55.1279 203.666 55.2461 203.387 55.4214C203.123 55.5846 202.912 55.8219 202.782 56.1038C202.577 56.5651 202.485 57.068 202.511 57.5718V67.2937L194.438 67.255ZM156.915 67.255V42.3516H172.367V49.2663H164.899V51.7129H171.788V58.6277H164.976V67.255H156.915Z" fill="#308DFF"/>
<path d="M171.478 43.3295V48.3128H164.01V52.6909H170.899V57.6741H164.01V66.3015H157.893V43.3295H171.478ZM206.168 48.1841C206.521 48.1856 206.874 48.2114 207.224 48.2613L208.035 48.3643L207.494 54.1717C207.239 54.114 206.981 54.0711 206.722 54.0429C206.294 53.9973 205.864 53.9758 205.434 53.9786C205.002 53.9781 204.571 54.0169 204.146 54.0944C203.691 54.1644 203.254 54.3218 202.859 54.558C202.446 54.817 202.116 55.1876 201.906 55.6268C201.622 56.2252 201.49 56.8839 201.52 57.5454V66.3015H195.377V48.4802H199.949L200.914 51.326H201.211C201.551 50.732 201.986 50.1971 202.498 49.7421C203.001 49.2677 203.58 48.8804 204.211 48.5961C204.83 48.3178 205.502 48.173 206.181 48.1712M183.08 48.1712C184.665 48.1395 186.233 48.507 187.639 49.2399C188.962 49.9521 190.05 51.0351 190.768 52.3561C191.573 53.8951 191.968 55.616 191.914 57.3522C191.936 58.6957 191.727 60.033 191.295 61.3054C190.925 62.3946 190.318 63.3883 189.518 64.2155C188.729 65.015 187.769 65.6267 186.711 66.0054C185.511 66.4228 184.248 66.6276 182.977 66.6106C181.766 66.6215 180.562 66.4165 179.423 66.0054C178.375 65.6138 177.423 65.0037 176.629 64.2155C175.807 63.4089 175.17 62.4336 174.762 61.3569C174.315 60.0877 174.097 58.7492 174.118 57.4037C174.066 55.6765 174.432 53.9622 175.187 52.4076C175.872 51.0799 176.945 49.9928 178.264 49.2914C179.752 48.5414 181.402 48.1741 183.067 48.2227M183.067 62.1037C183.629 62.1322 184.18 61.9379 184.6 61.5629C185.015 61.1229 185.297 60.5734 185.411 59.9791C185.607 59.135 185.697 58.27 185.681 57.4037C185.701 56.5373 185.61 55.6718 185.411 54.8284C185.294 54.2408 185.002 53.7022 184.574 53.2832C184.149 52.9199 183.6 52.7354 183.042 52.7681C182.627 52.7441 182.214 52.8408 181.853 53.0464C181.492 53.2521 181.198 53.5579 181.007 53.927C180.547 55.0167 180.34 56.1967 180.402 57.378C180.388 58.2435 180.475 59.1076 180.659 59.9533C180.786 60.5515 181.081 61.101 181.509 61.5371C181.942 61.9078 182.498 62.1011 183.067 62.078M173.448 41.4753H155.962V68.3103H165.941V59.6829H172.38C172.5 60.5009 172.707 61.3038 172.998 62.078C173.498 63.4316 174.284 64.6614 175.303 65.6834C176.289 66.6126 177.455 67.3312 178.728 67.7952C180.085 68.2918 181.52 68.5404 182.964 68.5292C184.459 68.5413 185.945 68.2929 187.355 67.7952C188.685 67.318 189.891 66.5479 190.883 65.5418C191.879 64.5134 192.635 63.2779 193.098 61.9235C193.254 61.5029 193.383 61.0728 193.485 60.6358V68.233H203.451V57.4939C203.424 57.1516 203.477 56.8078 203.606 56.4895C203.661 56.3648 203.745 56.2547 203.85 56.1676C204.026 56.0559 204.224 55.9814 204.43 55.9487C204.735 55.8898 205.046 55.8596 205.357 55.8585C205.713 55.8328 206.07 55.8328 206.426 55.8585L206.966 55.9358L209.155 56.5153L209.374 54.249L209.928 48.4545L210.095 46.6775L208.331 46.3684L207.404 46.2397C206.978 46.1761 206.547 46.1459 206.117 46.1495C205.17 46.1475 204.235 46.3495 203.374 46.7419C202.797 46.9981 202.252 47.3223 201.751 47.7076L201.326 46.4199H193.433V54.0429C193.218 53.0736 192.862 52.1409 192.377 51.2744C191.497 49.6355 190.153 48.292 188.514 47.4114C186.83 46.533 184.953 46.0903 183.054 46.1238C181.076 46.0803 179.118 46.5224 177.35 47.4114C175.705 48.2838 174.359 49.6294 173.487 51.2744C173.224 51.7742 173.005 52.2954 172.83 52.8325V50.5791H165.941V50.064H173.41V41.2178L173.448 41.4753ZM183.029 60.0692C182.941 60.0961 182.846 60.0961 182.758 60.0692C182.63 59.8786 182.543 59.6639 182.501 59.4382C182.345 58.7542 182.276 58.0534 182.295 57.3522C182.229 56.4757 182.361 55.5955 182.681 54.7769C182.681 54.6739 182.758 54.6481 183.003 54.6481C183.088 54.6344 183.175 54.6344 183.26 54.6481C183.382 54.8156 183.462 55.01 183.492 55.2147C183.652 55.8982 183.726 56.599 183.711 57.3007C183.722 58.0059 183.653 58.7101 183.505 59.3996C183.466 59.6385 183.369 59.8641 183.222 60.0563H183.029V60.0692Z" fill="white"/>
<path d="M213.122 67.6545C212.073 67.6806 211.044 67.3691 210.186 66.766C209.718 66.408 209.348 65.9391 209.107 65.4017C208.867 64.8644 208.764 64.2755 208.808 63.6884C208.757 63.09 208.857 62.4883 209.1 61.939C209.343 61.3898 209.721 60.9108 210.199 60.5465C211.062 59.9692 212.083 59.6724 213.122 59.6967C214.126 59.6853 215.111 59.9819 215.942 60.5465C216.412 60.916 216.783 61.3966 217.021 61.945C217.259 62.4935 217.358 63.0926 217.307 63.6884C217.351 64.271 217.25 64.8555 217.014 65.39C216.778 65.9246 216.415 66.3928 215.955 66.7531C215.133 67.3521 214.139 67.6684 213.122 67.6545Z" fill="#343434"/>
<path d="M213.122 60.662C213.925 60.6495 214.713 60.8881 215.375 61.3445C215.719 61.6235 215.987 61.9841 216.156 62.3935C216.325 62.8028 216.388 63.2478 216.341 63.688C216.379 64.1199 216.312 64.5547 216.143 64.9543C215.975 65.3538 215.711 65.7061 215.375 65.9801C214.72 66.4538 213.93 66.7023 213.122 66.6883C212.273 66.7064 211.44 66.4588 210.739 65.9801C210.403 65.7061 210.14 65.3538 209.971 64.9543C209.803 64.5547 209.735 64.1199 209.774 63.688C209.726 63.2478 209.79 62.8028 209.959 62.3935C210.127 61.9841 210.396 61.6235 210.739 61.3445C211.445 60.8795 212.277 60.6414 213.122 60.662ZM213.122 58.7305C211.89 58.7077 210.681 59.0627 209.658 59.7478C209.045 60.1963 208.557 60.7934 208.24 61.4828C207.922 62.1722 207.785 62.9311 207.842 63.688C207.792 64.4279 207.926 65.1687 208.234 65.8432C208.542 66.5178 209.014 67.1048 209.606 67.551C210.632 68.2787 211.864 68.6579 213.122 68.6327C214.342 68.6476 215.534 68.2682 216.521 67.551C217.107 67.0995 217.573 66.5112 217.878 65.8377C218.183 65.1642 218.319 64.4261 218.272 63.688C218.329 62.9369 218.196 62.1836 217.885 61.4974C217.575 60.8111 217.097 60.2139 216.495 59.7606C215.507 59.0719 214.326 58.7115 213.122 58.7305Z" fill="white"/>
<path d="M226.23 67.5766C225.266 67.5832 224.303 67.5316 223.345 67.4221C222.543 67.3251 221.751 67.1614 220.976 66.9327C220.206 66.6815 219.453 66.3804 218.723 66.0314L218.169 65.7738V58.0478L219.572 58.7561C220.715 59.3335 221.915 59.7909 223.152 60.121C224.193 60.4088 225.266 60.5645 226.346 60.5845C226.742 60.5981 227.138 60.5459 227.517 60.43C227.692 60.3824 227.849 60.2838 227.968 60.1467C228.028 60.0549 228.059 59.9474 228.058 59.8377C228.061 59.7798 228.051 59.722 228.029 59.6685C228.007 59.615 227.973 59.5672 227.929 59.5287C227.612 59.2289 227.247 58.9851 226.848 58.8076C226.243 58.5114 225.457 58.138 224.479 57.7002C223.5 57.2624 222.779 56.8503 222.058 56.4125C221.331 55.9728 220.668 55.4355 220.088 54.8158C219.528 54.1569 219.091 53.4022 218.8 52.5881C218.485 51.6552 218.333 50.6753 218.349 49.6909C218.305 48.1642 218.757 46.6643 219.637 45.4158C220.522 44.2386 221.73 43.3438 223.114 42.8405C224.652 42.2837 226.28 42.0131 227.917 42.0421C229.368 42.0246 230.815 42.2066 232.217 42.583C233.371 42.8951 234.499 43.2954 235.591 43.7805L236.428 44.1539L233.853 50.7597L232.926 50.3347C232.036 49.9212 231.115 49.581 230.17 49.3175C229.389 49.0792 228.578 48.9534 227.762 48.944C227.435 48.9363 227.11 48.9797 226.796 49.0728C226.67 49.1135 226.555 49.1842 226.462 49.2788C226.448 49.3338 226.448 49.3913 226.462 49.4462C226.462 49.503 226.475 49.5589 226.499 49.6101C226.524 49.6613 226.559 49.7065 226.603 49.7424C226.947 50.0415 227.333 50.2888 227.749 50.4764C228.38 50.7983 229.269 51.2103 230.402 51.764C231.471 52.2304 232.486 52.8134 233.428 53.5024C234.304 54.1299 235.016 54.9606 235.501 55.9232C236.018 56.9937 236.27 58.1729 236.235 59.3613C236.235 60.7747 235.866 62.1638 235.166 63.3917C234.379 64.7247 233.22 65.7988 231.831 66.482C230.079 67.292 228.158 67.6675 226.23 67.5766Z" fill="#343434"/>
<path d="M227.917 42.9824C229.281 42.9657 230.642 43.1346 231.96 43.4846C233.064 43.7874 234.144 44.1704 235.192 44.6306L233.287 49.4208C232.35 48.9898 231.381 48.6325 230.389 48.352C229.524 48.0965 228.627 47.9622 227.724 47.9528C227.286 47.9406 226.849 48.0105 226.436 48.1589C226.138 48.2525 225.874 48.4316 225.676 48.6739C225.524 48.8928 225.443 49.1538 225.445 49.4208C225.442 49.6017 225.477 49.7812 225.548 49.9476C225.619 50.114 225.724 50.2635 225.857 50.3865C226.271 50.7638 226.74 51.0764 227.247 51.3136L229.939 52.6013C230.949 53.0382 231.908 53.5868 232.797 54.2366C233.554 54.7772 234.168 55.493 234.587 56.3227C235.036 57.2573 235.252 58.2866 235.218 59.3229C235.221 60.5694 234.897 61.7949 234.278 62.8769C233.583 64.0444 232.563 64.984 231.342 65.581C229.735 66.3388 227.967 66.6967 226.192 66.624C225.267 66.6286 224.342 66.5813 223.423 66.4823C222.677 66.394 221.94 66.2389 221.221 66.0188C220.495 65.7825 219.785 65.4986 219.096 65.1689V59.6448C220.3 60.2557 221.565 60.739 222.869 61.087C223.991 61.3905 225.146 61.5549 226.307 61.5763C226.853 61.6 227.398 61.5259 227.917 61.3574C228.259 61.2399 228.562 61.0305 228.793 60.7522C228.983 60.4956 229.082 60.1831 229.076 59.8637C229.083 59.6754 229.048 59.4879 228.975 59.3144C228.902 59.1408 228.791 58.9855 228.651 58.8594C228.272 58.4957 227.838 58.1957 227.363 57.9709C226.758 57.6747 225.96 57.2884 224.968 56.8377C224.174 56.4723 223.4 56.0639 222.65 55.6144C221.998 55.2233 221.404 54.7422 220.886 54.1851C220.397 53.6279 220.021 52.9806 219.779 52.2794C219.492 51.4519 219.357 50.5795 219.38 49.7041C219.334 48.3821 219.718 47.0809 220.474 45.9956C221.242 44.9599 222.299 44.1755 223.513 43.7422C224.963 43.2075 226.501 42.9498 228.046 42.9824M228.046 41.0509C226.289 41.0289 224.543 41.33 222.895 41.9394C221.351 42.5184 220.009 43.534 219.032 44.8624C217.948 46.2684 217.36 47.9932 217.358 49.7684C217.343 50.8632 217.517 51.9523 217.873 52.9876C218.196 53.9338 218.698 54.8084 219.354 55.5629C220.001 56.2628 220.742 56.8695 221.556 57.3657C222.365 57.8391 223.199 58.2689 224.054 58.6533L226.295 59.7092C225.312 59.6781 224.335 59.5355 223.384 59.2843C222.219 58.9717 221.088 58.5402 220.011 57.9966L217.204 56.5802V66.4823L218.311 66.9974C219.075 67.3627 219.862 67.6767 220.667 67.9374C221.509 68.1888 222.371 68.3697 223.243 68.4782C224.239 68.5876 225.241 68.6391 226.243 68.6327C228.322 68.6955 230.385 68.2537 232.256 67.3451C233.812 66.5833 235.107 65.378 235.978 63.8813C236.765 62.51 237.178 60.9558 237.175 59.3744C237.206 58.0372 236.915 56.7122 236.325 55.5114C235.776 54.4145 234.967 53.4684 233.969 52.7558C232.966 52.0271 231.887 51.4096 230.75 50.9145L228.999 50.0904C229.303 50.1465 229.604 50.2196 229.9 50.3093C230.807 50.5531 231.69 50.8762 232.54 51.275L234.394 52.1249L235.141 50.232L237.047 45.429L237.716 43.7164L236.042 42.9567C234.904 42.4414 233.729 42.011 232.527 41.669C231.041 41.2673 229.507 41.0723 227.968 41.0896L228.046 41.0509Z" fill="white"/>
<path d="M242.867 67.5639C241.756 67.5759 240.658 67.329 239.66 66.8428C238.671 66.3301 237.859 65.5314 237.33 64.5507C236.745 63.4086 236.457 62.1377 236.493 60.8552C236.436 59.8822 236.626 58.9108 237.045 58.0308C237.463 57.1507 238.097 56.3905 238.888 55.8204C239.384 55.4739 239.92 55.1885 240.484 54.9705L238.012 49.3305L238.81 48.9185C239.993 48.3169 241.255 47.8835 242.558 47.6308C244.058 47.3314 245.586 47.1889 247.116 47.2059C249.26 47.0858 251.372 47.77 253.039 49.1245C253.794 49.8163 254.386 50.6675 254.771 51.6162C255.156 52.565 255.326 53.5876 255.267 54.61V67.2549H249.447L248.584 65.5423C248.325 65.7961 248.05 66.0326 247.76 66.2505C247.112 66.7255 246.377 67.0669 245.596 67.2549C244.705 67.4827 243.786 67.5867 242.867 67.5639ZM246.807 59.3615C246.175 59.3091 245.543 59.4482 244.991 59.7606C244.877 59.8428 244.786 59.9543 244.73 60.0835C244.673 60.2126 244.652 60.3546 244.669 60.4946C244.643 60.7245 244.708 60.9555 244.85 61.1384C245.035 61.2648 245.257 61.3239 245.481 61.3058C245.715 61.3175 245.95 61.2826 246.171 61.203C246.392 61.1234 246.595 61.0008 246.768 60.8423C246.927 60.7039 247.053 60.5311 247.135 60.337C247.218 60.143 247.255 59.9326 247.245 59.722V59.3486L246.807 59.3615ZM245.983 53.4639C245.274 53.4805 244.572 53.5975 243.897 53.8116C243.195 54.0081 242.507 54.2489 241.836 54.5327C242.922 54.275 244.031 54.1241 245.146 54.082H247.09C247.069 53.9778 247.014 53.8831 246.936 53.8116C246.804 53.6872 246.648 53.592 246.477 53.5321C246.306 53.4722 246.125 53.4489 245.944 53.4639H245.983Z" fill="#343434"/>
<path d="M247.116 48.1714C249.022 48.0578 250.903 48.6541 252.396 49.8454C253.047 50.4481 253.556 51.1884 253.886 52.0125C254.216 52.8367 254.357 53.7239 254.301 54.6097V66.2889H250.039L248.854 63.9324H248.739C248.286 64.5105 247.762 65.0296 247.18 65.4776C246.636 65.8725 246.019 66.1569 245.365 66.3146C244.549 66.5228 243.709 66.6182 242.867 66.5979C241.908 66.6117 240.96 66.4 240.098 65.9798C239.28 65.5502 238.607 64.8868 238.167 64.0741C237.665 63.0774 237.421 61.9704 237.459 60.8549C237.403 60.0368 237.556 59.218 237.903 58.4749C238.25 57.7319 238.779 57.0888 239.442 56.6056C241.173 55.5614 243.163 55.0218 245.185 55.0475L248.146 54.9574V54.6999C248.18 54.3923 248.144 54.0812 248.041 53.7893C247.939 53.4974 247.772 53.2322 247.554 53.013C247.114 52.6497 246.553 52.4657 245.983 52.498C245.183 52.5145 244.39 52.6446 243.627 52.8843C242.745 53.1295 241.884 53.4438 241.051 53.8243L239.261 49.7681C240.365 49.212 241.539 48.8091 242.751 48.5706C244.189 48.2888 245.651 48.1551 247.116 48.1714ZM245.481 62.3357C246.182 62.3473 246.863 62.0945 247.387 61.6275C247.646 61.3972 247.851 61.113 247.989 60.795C248.127 60.477 248.194 60.1327 248.185 59.7862V58.3955H246.768C245.932 58.3526 245.101 58.5636 244.386 59.0007C244.159 59.1749 243.978 59.4022 243.859 59.6626C243.74 59.923 243.687 60.2086 243.704 60.4944C243.694 60.7309 243.732 60.967 243.817 61.1883C243.901 61.4097 244.029 61.6116 244.193 61.782C244.555 62.0778 245.014 62.2292 245.481 62.207M247.116 46.1755C245.517 46.1632 243.921 46.3098 242.352 46.6133C240.969 46.8889 239.63 47.3525 238.373 47.9911L236.763 48.8281L237.497 50.4763L239.223 54.4295C238.915 54.5854 238.618 54.7618 238.334 54.9574C237.415 55.6165 236.676 56.4961 236.185 57.5153C235.695 58.5346 235.469 59.6609 235.527 60.7905C235.491 62.2293 235.814 63.6544 236.467 64.9368C237.092 66.0835 238.041 67.0199 239.197 67.628C240.337 68.1918 241.595 68.4786 242.867 68.465C243.878 68.4848 244.887 68.3678 245.867 68.1174C246.732 67.903 247.549 67.5273 248.275 67.01V67.1001L248.816 68.156H256.246V54.5454C256.307 53.3823 256.107 52.2203 255.662 51.1442C255.216 50.0681 254.536 49.1052 253.67 48.3259C251.833 46.821 249.501 46.0544 247.129 46.1755H247.116Z" fill="white"/>
<path d="M265.594 40.8701H257.521V67.2544H265.594V40.8701Z" fill="#343434"/>
<path d="M264.628 41.8358V66.3015H258.486V41.8358H264.628ZM266.56 39.9043H256.555V68.233H266.547V39.9043H266.56Z" fill="white"/>
<path d="M277.479 67.5635C275.708 67.591 273.952 67.2398 272.328 66.5333C270.755 65.8278 269.438 64.6542 268.556 63.1725C267.594 61.4436 267.126 59.4836 267.204 57.5068C267.133 55.5307 267.549 53.5677 268.414 51.7896C269.178 50.2892 270.4 49.0713 271.904 48.3128C273.443 47.5634 275.136 47.18 276.848 47.1926C278.534 47.1526 280.207 47.496 281.741 48.197C283.15 48.8511 284.317 49.9324 285.076 51.2874C285.882 52.831 286.276 54.556 286.222 56.2964V60.0692H285.063V65.9539L284.548 66.2243C283.577 66.7237 282.541 67.0876 281.471 67.3059C280.152 67.52 278.815 67.6063 277.479 67.5635ZM275.56 60.0692C275.677 60.3046 275.839 60.5147 276.037 60.6873C276.662 61.1753 277.45 61.4057 278.239 61.3312C279.187 61.3414 280.133 61.242 281.059 61.035C281.985 60.801 282.886 60.4776 283.75 60.0692H275.56ZM278.574 54.2747C278.462 54.0212 278.279 53.8061 278.046 53.6567C277.778 53.4825 277.463 53.3969 277.144 53.412C276.934 53.4036 276.723 53.4381 276.526 53.5134C276.329 53.5886 276.15 53.7031 275.998 53.8498C275.853 53.9739 275.742 54.1336 275.676 54.3134L278.574 54.2747Z" fill="#343434"/>
<path d="M276.848 48.1715C278.39 48.1326 279.922 48.4407 281.329 49.0729C282.558 49.6486 283.575 50.5941 284.239 51.777C284.964 53.1747 285.315 54.7362 285.257 56.3096V59.0394H274.273C274.284 59.472 274.382 59.8978 274.561 60.2917C274.74 60.6855 274.997 61.0391 275.316 61.3315C276.117 61.9882 277.141 62.311 278.174 62.2328C279.202 62.2461 280.226 62.1337 281.226 61.898C282.216 61.6586 283.178 61.3177 284.098 60.8808V65.2975C283.209 65.7594 282.26 66.0932 281.278 66.289C280.003 66.5184 278.709 66.6219 277.415 66.598C275.764 66.6301 274.125 66.3051 272.612 65.6452C271.216 65.0216 270.047 63.9829 269.264 62.6706C268.398 61.0963 267.98 59.3151 268.053 57.52C267.981 55.7013 268.357 53.8926 269.148 52.2534C269.819 50.9289 270.898 49.8548 272.225 49.1888C273.661 48.4941 275.241 48.1499 276.835 48.1844M274.389 55.1893H279.668C279.665 54.6952 279.555 54.2076 279.346 53.76C279.161 53.342 278.856 52.988 278.471 52.7427C278.049 52.472 277.555 52.3372 277.054 52.3564C276.381 52.3421 275.73 52.5917 275.239 53.0518C274.694 53.6305 274.39 54.3947 274.389 55.1893ZM276.835 46.2529C274.937 46.2221 273.059 46.6366 271.35 47.4633C269.69 48.3155 268.339 49.6665 267.487 51.3263C266.563 53.2473 266.122 55.3642 266.199 57.4942C266.123 59.6482 266.64 61.7817 267.693 63.6621C268.674 65.31 270.14 66.6143 271.891 67.3964C273.656 68.166 275.566 68.548 277.492 68.5166C278.912 68.5405 280.331 68.4241 281.728 68.169C282.886 67.94 284.005 67.5454 285.051 66.9972L286.094 66.4564V60.958H287.252V56.2967C287.302 54.3921 286.858 52.507 285.965 50.8241C285.105 49.295 283.791 48.0711 282.205 47.3217C280.536 46.5639 278.719 46.1899 276.887 46.2271L276.835 46.2529Z" fill="white"/>
</g>
<defs>
<clipPath id="clip0_4340_21660">
<rect width="287.24" height="71.62" fill="white"/>
</clipPath>
</defs>
</svg>
