<svg width="21" height="21" viewBox="0 0 21 21" fill="none" xmlns="http://www.w3.org/2000/svg">
<path d="M12.0366 13.4092H9.00626C8.3028 13.4092 8.18375 14.1018 8.16211 14.3182V20.7468H12.7617V14.0802C12.805 13.5932 12.2638 13.4416 12.0366 13.4092Z" fill="#3C94FF"/>
<path d="M20.5 13.6363V7.57575L11.5823 0H9.06061L0.5 7.47832V13.6147C0.5 13.842 0.5 14.0585 0.5 14.2966C0.5 14.5346 0.5 14.7511 0.5 14.9675V15.1948C0.70988 16.6735 1.42891 18.0327 2.53322 19.0382C3.63752 20.0437 5.05794 20.6326 6.54978 20.7035V14.21C6.55812 13.56 6.81931 12.9388 7.27794 12.4782C7.73656 12.0175 8.35656 11.7536 9.00649 11.7424H12.1017C12.7009 11.7713 13.2678 12.0223 13.692 12.4465C14.1162 12.8707 14.3672 13.4376 14.3961 14.0368V20.6818C15.8867 20.6106 17.3057 20.0213 18.4082 19.0156C19.5107 18.0099 20.2275 16.651 20.4351 15.1732V14.9459C20.4515 14.7225 20.4515 14.4982 20.4351 14.2749C20.4712 14.0638 20.4929 13.8504 20.5 13.6363Z" fill="#3C94FF"/>
</svg>
