<svg width="19" height="23" viewBox="0 0 19 23" fill="none" xmlns="http://www.w3.org/2000/svg">
<g clip-path="url(#clip0_4340_20094)">
<path d="M12.5 5.07397C13.6391 5.07397 14.5625 4.15058 14.5625 3.01147C14.5625 1.87237 13.6391 0.948975 12.5 0.948975C11.3609 0.948975 10.4375 1.87237 10.4375 3.01147C10.4375 4.15058 11.3609 5.07397 12.5 5.07397ZM5.69762 14.5903L5.06168 16.0735H2.1875C1.42824 16.0735 0.8125 16.6893 0.8125 17.4485C0.8125 18.2078 1.42824 18.8235 2.1875 18.8235H5.51543C6.34258 18.8235 7.08723 18.332 7.41078 17.5736L7.78848 16.6919L7.33 16.4212C6.58578 15.9816 6.03836 15.331 5.69762 14.5903ZM17.3125 10.5735H15.4206L14.3008 8.28546C13.7637 7.18761 12.7776 6.38495 11.6462 6.09663L8.59199 5.18827C7.37598 4.89608 6.10969 5.16464 5.1184 5.92476L3.41383 7.23144C2.81098 7.69335 2.69668 8.55616 3.15945 9.15901C3.62223 9.76186 4.48461 9.87487 5.08703 9.41339L6.79246 8.10671C7.12203 7.85362 7.54184 7.76296 7.87828 7.84288L8.50992 8.03065L6.90031 11.7857C6.35805 13.0524 6.84402 14.5361 8.03039 15.2365L11.6819 17.3923L10.5015 21.1619C10.2746 21.8864 10.6781 22.6576 11.4026 22.8845C11.5396 22.9275 11.678 22.9481 11.8142 22.9481C12.399 22.9481 12.9413 22.5713 13.1256 21.9835L14.4852 17.641C14.7391 16.7486 14.361 15.7899 13.5553 15.304L10.9239 13.7511L12.2693 10.3875L13.1402 12.1677C13.484 12.8698 14.211 13.3231 14.9926 13.3231H17.3125C18.0718 13.3231 18.6875 12.7074 18.6875 11.9481C18.6875 11.1889 18.0718 10.5735 17.3125 10.5735Z" fill="#006EFF"/>
</g>
<defs>
<clipPath id="clip0_4340_20094">
<rect width="17.875" height="22" fill="white" transform="translate(0.8125 0.948975)"/>
</clipPath>
</defs>
</svg>
