<svg width="40" height="41" viewBox="0 0 40 41" fill="none" xmlns="http://www.w3.org/2000/svg">
<rect y="0.222656" width="40" height="40" rx="20" fill="#246BFD"/>
<path fill-rule="evenodd" clip-rule="evenodd" d="M12.0669 20.2227C12.0669 19.9575 12.1714 19.7032 12.3573 19.5157C12.5433 19.3282 12.7955 19.2228 13.0585 19.2228L24.5467 19.2228L20.2889 14.9316C20.1967 14.8387 20.1236 14.7283 20.0737 14.6068C20.0238 14.4854 19.9981 14.3552 19.9981 14.2237C19.9981 14.0923 20.0238 13.9621 20.0737 13.8406C20.1236 13.7192 20.1967 13.6088 20.2889 13.5159C20.3811 13.4229 20.4905 13.3492 20.611 13.2989C20.7315 13.2485 20.8606 13.2227 20.9909 13.2227C21.1213 13.2227 21.2504 13.2485 21.3709 13.2989C21.4913 13.3492 21.6008 13.4229 21.693 13.5159L27.6423 19.5148C27.7346 19.6077 27.8079 19.718 27.8579 19.8395C27.9079 19.9609 27.9336 20.0911 27.9336 20.2227C27.9336 20.3542 27.9079 20.4844 27.8579 20.6059C27.8079 20.7273 27.7346 20.8377 27.6423 20.9305L21.693 26.9294C21.5068 27.1172 21.2542 27.2227 20.9909 27.2227C20.7276 27.2227 20.4751 27.1172 20.2889 26.9294C20.1027 26.7417 19.9981 26.4871 19.9981 26.2216C19.9981 25.9561 20.1027 25.7014 20.2889 25.5137L24.5467 21.2225L13.0585 21.2225C12.7955 21.2225 12.5433 21.1171 12.3573 20.9296C12.1714 20.7421 12.0669 20.4878 12.0669 20.2227Z" fill="white"/>
</svg>
