<svg width="24" height="25" viewBox="0 0 24 25" fill="none" xmlns="http://www.w3.org/2000/svg">
<g id="solar:star-linear">
<path id="Vector" d="M9.15323 5.63017C10.4202 3.35817 11.0532 2.22217 12.0002 2.22217C12.9472 2.22217 13.5802 3.35817 14.8472 5.63017L15.1752 6.21817C15.5352 6.86417 15.7152 7.18717 15.9952 7.40017C16.2752 7.61317 16.6252 7.69217 17.3252 7.85017L17.9612 7.99417C20.4212 8.55117 21.6502 8.82917 21.9432 9.77017C22.2352 10.7102 21.3972 11.6912 19.7202 13.6522L19.2862 14.1592C18.8102 14.7162 18.5712 14.9952 18.4642 15.3392C18.3572 15.6842 18.3932 16.0562 18.4652 16.7992L18.5312 17.4762C18.7842 20.0932 18.9112 21.4012 18.1452 21.9822C17.3792 22.5642 16.2272 22.0332 13.9252 20.9732L13.3282 20.6992C12.6742 20.3972 12.3472 20.2472 12.0002 20.2472C11.6532 20.2472 11.3262 20.3972 10.6712 20.6992L10.0762 20.9732C7.77323 22.0332 6.62124 22.5632 5.85624 21.9832C5.08924 21.4012 5.21623 20.0932 5.46923 17.4762L5.53523 16.8002C5.60723 16.0562 5.64323 15.6842 5.53523 15.3402C5.42923 14.9952 5.19024 14.7162 4.71424 14.1602L4.28024 13.6522C2.60324 11.6922 1.76523 10.7112 2.05723 9.77017C2.35024 8.82917 3.58024 8.55017 6.04024 7.99417L6.67624 7.85017C7.37524 7.69217 7.72424 7.61317 8.00524 7.40017C8.28524 7.18717 8.46523 6.86417 8.82523 6.21817L9.15323 5.63017Z" stroke="#006EFF" stroke-width="1.5"/>
</g>
</svg>
