<svg width="24" height="25" viewBox="0 0 24 25" fill="none" xmlns="http://www.w3.org/2000/svg">
<g id="bxs:offer">
<path id="Vector" d="M18.4782 14.0113L18.6665 13.6859L19.7704 11.7781L18.4782 14.0113ZM18.4782 14.0113L18.6664 14.3367M18.4782 14.0113L18.6664 14.3367M18.6664 14.3367L19.7694 16.2447L19.7696 16.2452M18.6664 14.3367L19.7696 16.2452M19.7696 16.2452C19.7927 16.285 19.8077 16.3289 19.8137 16.3745C19.8198 16.4201 19.8168 16.4664 19.8049 16.5109C19.7931 16.5553 19.7726 16.597 19.7446 16.6335C19.7166 16.67 19.6817 16.7006 19.6419 16.7236L19.6418 16.7237M19.7696 16.2452L19.6418 16.7237M19.6418 16.7237L17.7318 17.8277L17.4071 18.0153M19.6418 16.7237L17.4071 18.0153M17.4071 18.0153V18.3904M17.4071 18.0153V18.3904M17.4071 18.3904V20.5894C17.4071 20.6822 17.3702 20.7713 17.3046 20.8369C17.239 20.9025 17.1499 20.9394 17.0571 20.9394H14.8581H14.4829M17.4071 18.3904L14.4829 20.9394M14.4829 20.9394L14.2952 21.2644M14.4829 20.9394L14.2952 21.2644M14.2952 21.2644L13.1928 23.1733C13.1927 23.1735 13.1926 23.1737 13.1925 23.1739C13.1458 23.254 13.0694 23.3124 12.9798 23.3364C12.8901 23.3603 12.7945 23.3478 12.7141 23.3015C12.714 23.3014 12.7139 23.3014 12.7138 23.3013L10.8044 22.1977L10.4789 22.0095M14.2952 21.2644L10.4789 22.0095M10.4789 22.0095L10.1536 22.1978M10.4789 22.0095L10.1536 22.1978M10.1536 22.1978L8.24587 23.3016C8.24581 23.3017 8.24575 23.3017 8.24569 23.3017C8.19094 23.3333 8.13085 23.3491 8.07202 23.3494C8.01016 23.3487 7.9495 23.3321 7.8959 23.3012C7.84216 23.2702 7.79736 23.2258 7.76584 23.1724C7.76562 23.172 7.76539 23.1716 7.76516 23.1712L6.66287 21.2641L6.47518 20.9394M10.1536 22.1978L6.47518 20.9394M6.47518 20.9394H6.10011M6.47518 20.9394H6.10011M6.10011 20.9394H3.90011C3.80729 20.9394 3.71826 20.9025 3.65263 20.8369C3.58699 20.7713 3.55011 20.6822 3.55011 20.5894V18.3904V18.0153M6.10011 20.9394L3.55011 18.0153M3.55011 18.0153L3.22539 17.8277M3.55011 18.0153L3.22539 17.8277M3.22539 17.8277L1.31806 16.7252C1.31774 16.725 1.31742 16.7248 1.3171 16.7246C1.23692 16.6775 1.17853 16.6006 1.15459 16.5107C1.13061 16.4206 1.1431 16.3248 1.18934 16.2439C1.18946 16.2437 1.18959 16.2434 1.18972 16.2432L2.29272 14.3369L2.48108 14.0114M3.22539 17.8277L2.48108 14.0114M2.48108 14.0114L2.29272 13.6859M2.48108 14.0114L2.29272 13.6859M2.29272 13.6859L1.18872 11.7779L1.18793 11.7765M2.29272 13.6859L1.18793 11.7765M1.18793 11.7765C1.16488 11.7369 1.14988 11.6931 1.1438 11.6477C1.13772 11.6022 1.14067 11.556 1.1525 11.5117C1.16433 11.4674 1.18479 11.4259 1.21271 11.3896C1.24063 11.3532 1.27547 11.3227 1.31521 11.2998L1.31639 11.2992M1.18793 11.7765L1.31639 11.2992M1.31639 11.2992L3.22639 10.1952L3.55111 10.0075M1.31639 11.2992L3.55111 10.0075M3.55111 10.0075V9.63241M3.55111 10.0075V9.63241M3.55111 9.63241V7.43341C3.55111 7.34059 3.58799 7.25156 3.65363 7.18592C3.71926 7.12029 3.80829 7.08341 3.90111 7.08341H6.10011H6.47518M3.55111 9.63241L6.47518 7.08341M6.47518 7.08341L6.66287 6.75869M6.47518 7.08341L6.66287 6.75869M6.66287 6.75869L7.76687 4.84869L7.76702 4.84843M6.66287 6.75869L7.76702 4.84843M7.76702 4.84843C7.81343 4.76804 7.88988 4.70939 7.97954 4.68536C8.06912 4.66136 8.16456 4.6739 8.2449 4.7202C8.24497 4.72025 8.24504 4.72029 8.24512 4.72033L10.1546 5.82504L10.48 6.01327M7.76702 4.84843L10.48 6.01327M10.48 6.01327L10.8054 5.82517M10.48 6.01327L10.8054 5.82517M10.8054 5.82517L12.7154 4.72117L12.7169 4.72031M10.8054 5.82517L12.7169 4.72031M12.7169 4.72031C12.7561 4.69749 12.7995 4.68269 12.8445 4.67676C12.8894 4.67085 12.9349 4.67387 12.9786 4.68565C13.0692 4.71027 13.1465 4.76946 13.1938 4.85047C13.1939 4.8507 13.1941 4.85093 13.1942 4.85116L14.2963 6.7586L14.484 7.08341M12.7169 4.72031L14.484 7.08341M14.484 7.08341H14.8591M14.484 7.08341H14.8591M14.8591 7.08341H17.0581C17.1509 7.08341 17.24 7.12029 17.3056 7.18592C17.3712 7.25156 17.4081 7.34058 17.4081 7.43341V9.63341V10.0085M14.8591 7.08341L17.4081 10.0085M17.4081 10.0085L17.7328 10.1962M17.4081 10.0085L17.7328 10.1962M17.7328 10.1962L19.6426 11.3L17.7328 10.1962ZM19.8055 11.5126C19.7815 11.4231 19.723 11.3467 19.6428 11.3002L19.8055 11.5126ZM19.8055 11.5126C19.8294 11.6022 19.8168 11.6976 19.7705 11.7779L19.8055 11.5126Z" stroke="#006EFF" stroke-width="1.3"/>
<rect id="Rectangle 555" x="7" y="9.99951" width="2" height="2" fill="#006EFF"/>
<line id="Line 2" x1="14.5348" y1="10.571" x2="7.28112" y2="17.3078" stroke="#006EFF" stroke-width="1.2"/>
<rect id="Rectangle 556" x="12" y="15.9995" width="2" height="2" fill="#006EFF"/>
</g>
</svg>
