<svg width="24" height="25" viewBox="0 0 24 25" fill="none" xmlns="http://www.w3.org/2000/svg">
<path fill-rule="evenodd" clip-rule="evenodd" d="M15.1727 20.7376C13.8527 20.689 10.1118 20.172 6.194 16.2551C2.27708 12.3372 1.761 8.59724 1.7115 7.27632C1.63816 5.26332 3.18 3.30807 4.96108 2.54449C5.17556 2.45188 5.41043 2.41661 5.64265 2.44217C5.87487 2.46772 6.09646 2.55321 6.28566 2.69024C7.75233 3.75907 8.76433 5.37607 9.63333 6.64749C9.82453 6.92683 9.90628 7.26674 9.86301 7.60247C9.81973 7.9382 9.65445 8.24627 9.39866 8.46799L7.61025 9.79624C7.52384 9.85863 7.46303 9.95027 7.43909 10.0541C7.41514 10.158 7.42971 10.267 7.48008 10.3609C7.88525 11.097 8.60575 12.1933 9.43075 13.0183C10.2567 13.8433 11.4043 14.6115 12.1917 15.0625C12.2905 15.1179 12.4067 15.1334 12.5165 15.1058C12.6263 15.0782 12.7213 15.0095 12.7821 14.914L13.9462 13.1421C14.1603 12.8578 14.476 12.6673 14.8273 12.6106C15.1786 12.5538 15.5383 12.6353 15.8309 12.8377C17.1207 13.7306 18.6258 14.7252 19.7277 16.1359C19.8758 16.3265 19.9701 16.5534 20.0005 16.7928C20.031 17.0323 19.9966 17.2755 19.9009 17.4972C19.1337 19.2874 17.1922 20.8118 15.1727 20.7376Z" fill="#006EFF"/>
</svg>
