<svg width="25" height="25" viewBox="0 0 25 25" fill="none" xmlns="http://www.w3.org/2000/svg">
<g clip-path="url(#clip0_4340_20061)">
<path d="M23.77 20.1489C23.2811 20.1488 22.7979 20.0438 22.353 19.8412C21.8943 19.6328 21.3967 19.5242 20.8929 19.5225C20.388 19.5244 19.8893 19.6331 19.4293 19.8412C18.9845 20.0437 18.5014 20.1485 18.0126 20.1485C17.5238 20.1485 17.0407 20.0437 16.5959 19.8412C16.1357 19.6342 15.6374 19.5256 15.1329 19.5225C14.6281 19.5248 14.1294 19.6334 13.6693 19.8412C13.2236 20.0437 12.7398 20.1485 12.2502 20.1485C11.7607 20.1485 11.2768 20.0437 10.8311 19.8412C10.3732 19.6334 9.87662 19.5248 9.37382 19.5225C8.86917 19.5248 8.37067 19.6334 7.91078 19.8412C7.4652 20.0438 6.98139 20.1486 6.4919 20.1486C6.00241 20.1486 5.5186 20.0438 5.07302 19.8412C4.61326 19.633 4.11468 19.5244 3.60998 19.5225C3.10709 19.5253 2.61042 19.6339 2.15222 19.8412C1.70533 20.0435 1.22052 20.1483 0.72998 20.1489V18.0388C1.21977 18.036 1.7038 17.9329 2.15222 17.7359C2.60919 17.5244 3.10644 17.414 3.60998 17.4124C4.13126 17.4124 4.63094 17.5324 5.07302 17.7359C5.51891 17.9329 6.00059 18.036 6.48806 18.0388C6.97809 18.0368 7.46243 17.9337 7.91078 17.7359C8.36943 17.5238 8.86852 17.4135 9.37382 17.4124C9.89126 17.4124 10.3885 17.5324 10.8311 17.7359C11.2789 17.9331 11.7626 18.0362 12.2519 18.0388C12.7402 18.0362 13.2227 17.9331 13.6693 17.7359C14.1282 17.5239 14.6274 17.4135 15.1329 17.4124C15.6479 17.4124 16.1471 17.5324 16.5959 17.7359C17.0255 17.9245 17.5079 18.0388 18.0119 18.0388C18.5002 18.0366 18.9828 17.9335 19.4293 17.7359C19.8881 17.5235 20.3874 17.4131 20.8929 17.4124C21.4141 17.4124 21.9129 17.5324 22.353 17.7359C22.7994 17.9334 23.2818 18.0365 23.77 18.0388V20.1489ZM20.433 14.1796C21.946 14.1796 23.1738 12.9556 23.1738 11.4541C23.1738 9.95126 21.946 8.7335 20.433 8.7335C18.9177 8.7335 17.6913 9.95174 17.6913 11.4541C17.6913 12.9556 18.8087 14.1796 20.433 14.1796ZM4.46966 15.7117C4.6823 15.7621 4.88294 15.8356 5.0735 15.921C5.51856 16.1217 6.00083 16.2265 6.48902 16.2287C6.99302 16.2287 7.48214 16.1145 7.91126 15.921C8.37061 15.7109 8.8692 15.6003 9.3743 15.5965C9.89174 15.5965 10.39 15.7223 10.8316 15.921C11.2784 16.1219 11.7625 16.2267 12.2524 16.2287C12.7516 16.2287 13.2402 16.1145 13.6693 15.921C14.1289 15.7109 14.6276 15.6004 15.1329 15.5965C15.6484 15.5965 16.1481 15.7223 16.5959 15.921C17.026 16.114 17.5079 16.2287 18.0129 16.2287C18.3801 16.2287 18.7338 16.1668 19.0674 16.0626L14.4954 7.87574L19.8133 6.91238C20.5938 6.76454 21.1602 6.1559 21.1602 5.37686C21.1602 4.51766 20.4561 3.82886 19.5945 3.82886L19.4169 3.83414L11.2021 5.3183C10.6257 5.44934 9.86198 6.28742 10.2969 7.31558L10.3669 7.48118L12.5106 11.3226L4.46966 15.7117Z" fill="#006EFF"/>
</g>
<defs>
<clipPath id="clip0_4340_20061">
<rect width="24" height="24" fill="white" transform="translate(0.25 0.948975)"/>
</clipPath>
</defs>
</svg>
