<svg width="40" height="40" viewBox="0 0 40 40" fill="none" xmlns="http://www.w3.org/2000/svg">
<rect width="40" height="40" rx="20" fill="white"/>
<path d="M24.5 22C26.16 22 27.5 23.34 27.5 25C27.5 26.66 26.16 28 24.5 28C22.84 28 21.5 26.66 21.5 25C21.5 24.76 21.53 24.54 21.59 24.31L17.21 22.01C16.66 22.62 15.88 23 15 23C13.34 23 12 21.66 12 20C12 18.34 13.34 17 15 17C15.88 17 16.66 17.39 17.21 17.99L21.59 15.69C21.53 15.46 21.5 15.24 21.5 15C21.5 13.34 22.84 12 24.5 12C26.16 12 27.5 13.34 27.5 15C27.5 16.66 26.16 18 24.5 18C23.62 18 22.84 17.61 22.29 17.01L17.91 19.31C18.0311 19.762 18.0311 20.238 17.91 20.69L22.29 22.99C22.84 22.38 23.62 22 24.5 22Z" fill="#000929"/>
</svg>
