<svg width="25" height="25" viewBox="0 0 25 25" fill="none" xmlns="http://www.w3.org/2000/svg">
<path d="M21.7249 9.97404L15.6749 3.92404L16.0999 3.49904C16.4832 3.1157 16.9582 2.92804 17.5249 2.93604C18.0916 2.94404 18.5666 3.14004 18.9499 3.52404L22.1749 6.74904C22.5582 7.13237 22.7499 7.60337 22.7499 8.16204C22.7499 8.7207 22.5582 9.19137 22.1749 9.57404L21.7249 9.97404ZM9.3999 22.349C9.01657 22.7324 8.54557 22.924 7.9869 22.924C7.42824 22.924 6.9579 22.7324 6.5759 22.349L3.3499 19.124C2.96657 18.7407 2.7749 18.2697 2.7749 17.711C2.7749 17.1524 2.96657 16.6817 3.3499 16.299L3.7499 15.899L9.7999 21.949L9.3999 22.349ZM13.0249 21.649C12.8249 21.849 12.5916 21.949 12.3249 21.949C12.0582 21.949 11.8249 21.849 11.6249 21.649L4.0499 14.074C3.8499 13.874 3.7499 13.6407 3.7499 13.374C3.7499 13.1074 3.8499 12.874 4.0499 12.674L5.4749 11.224C5.6749 11.024 5.91257 10.924 6.1879 10.924C6.46324 10.924 6.70057 11.024 6.8999 11.224L8.4749 12.799L12.6249 8.64904L11.0499 7.07404C10.8499 6.87404 10.7499 6.6407 10.7499 6.37404C10.7499 6.10737 10.8499 5.87404 11.0499 5.67404L12.4749 4.22404C12.6749 4.02404 12.9126 3.92404 13.1879 3.92404C13.4632 3.92404 13.7006 4.02404 13.8999 4.22404L21.4749 11.799C21.6749 11.999 21.7749 12.2367 21.7749 12.512C21.7749 12.7874 21.6749 13.0247 21.4749 13.224L20.0249 14.649C19.8249 14.849 19.5916 14.949 19.3249 14.949C19.0582 14.949 18.8249 14.849 18.6249 14.649L17.0499 13.074L12.8999 17.224L14.4749 18.799C14.6749 18.999 14.7749 19.2364 14.7749 19.511C14.7749 19.7857 14.6749 20.0234 14.4749 20.224L13.0249 21.649Z" fill="#006EFF"/>
</svg>
