<svg width="40" height="40" viewBox="0 0 40 40" fill="none" xmlns="http://www.w3.org/2000/svg">
<rect width="40" height="40" rx="20" fill="white"/>
<path fill-rule="evenodd" clip-rule="evenodd" d="M27.9336 20C27.9336 20.2652 27.8291 20.5195 27.6431 20.707C27.4572 20.8945 27.205 20.9998 26.942 20.9998H15.4538L19.7116 25.291C19.8038 25.384 19.8769 25.4944 19.9268 25.6158C19.9767 25.7373 20.0024 25.8675 20.0024 25.9989C20.0024 26.1304 19.9767 26.2606 19.9268 26.382C19.8769 26.5035 19.8038 26.6138 19.7116 26.7068C19.6194 26.7997 19.5099 26.8735 19.3895 26.9238C19.269 26.9741 19.1399 27 19.0096 27C18.8792 27 18.7501 26.9741 18.6296 26.9238C18.5092 26.8735 18.3997 26.7997 18.3075 26.7068L12.3582 20.7079C12.2659 20.615 12.1926 20.5047 12.1426 20.3832C12.0926 20.2617 12.0669 20.1315 12.0669 20C12.0669 19.8685 12.0926 19.7383 12.1426 19.6168C12.1926 19.4953 12.2659 19.385 12.3582 19.2921L18.3075 13.2932C18.4937 13.1055 18.7462 13 19.0096 13C19.2729 13 19.5254 13.1055 19.7116 13.2932C19.8978 13.4809 20.0024 13.7356 20.0024 14.0011C20.0024 14.2666 19.8978 14.5212 19.7116 14.709L15.4538 19.0002H26.942C27.205 19.0002 27.4572 19.1055 27.6431 19.293C27.8291 19.4805 27.9336 19.7348 27.9336 20Z" fill="#000929"/>
</svg>
