<svg width="20" height="20" viewBox="0 0 20 20" fill="none" xmlns="http://www.w3.org/2000/svg">
<path d="M19.6432 8.10476H18.8622V8.06452H10.1368V11.9425H15.6159C14.8165 14.1999 12.6686 15.8205 10.1368 15.8205C6.9244 15.8205 4.31986 13.2159 4.31986 10.0035C4.31986 6.7911 6.9244 4.18656 10.1368 4.18656C11.6196 4.18656 12.9687 4.74595 13.9959 5.6597L16.7381 2.91749C15.0066 1.30378 12.6904 0.308594 10.1368 0.308594C4.78279 0.308594 0.441895 4.64949 0.441895 10.0035C0.441895 15.3575 4.78279 19.6984 10.1368 19.6984C15.4908 19.6984 19.8317 15.3575 19.8317 10.0035C19.8317 9.35346 19.7648 8.71893 19.6432 8.10476Z" fill="#616161"/>
<path d="M10.1368 19.6985C12.641 19.6985 14.9163 18.7402 16.6367 17.1817L13.6361 14.6426C12.6301 15.4077 11.4007 15.8215 10.1368 15.8205C7.61511 15.8205 5.47399 14.2126 4.66737 11.9688L1.50586 14.4046C3.11037 17.5443 6.36883 19.6985 10.1368 19.6985Z" fill="#616161"/>
<path d="M19.6431 8.10469H18.8621V8.06445H10.1367V11.9424H15.6158C15.2334 13.0168 14.5447 13.9557 13.6346 14.6429L13.6361 14.642L16.6367 17.1811C16.4244 17.374 19.8316 14.8509 19.8316 10.0034C19.8316 9.35339 19.7647 8.71886 19.6431 8.10469Z" fill="#616161"/>
<path d="M1.55957 5.49101L4.74483 7.827C5.60671 5.69315 7.69403 4.18656 10.1367 4.18656C11.6195 4.18656 12.9685 4.74595 13.9957 5.6597L16.7379 2.91749C15.0064 1.30378 12.6903 0.308594 10.1367 0.308594C6.41284 0.308594 3.18347 2.41094 1.55957 5.49101Z" fill="#616161"/>
</svg>
