<svg width="23" height="23" viewBox="0 0 23 23" fill="none" xmlns="http://www.w3.org/2000/svg">
<path d="M21.5 9.58202C21.4599 11.3359 20.9259 13.0363 19.9675 14.4618C18.3549 16.868 16.3223 18.9197 13.9811 20.5042C13.3107 20.9896 12.6282 21.4495 11.9099 21.871C11.7866 21.9552 11.6432 22 11.4968 22C11.3504 22 11.2071 21.9552 11.0838 21.871C8.26006 20.2348 5.75004 18.0463 3.68462 15.4199C2.66645 14.1606 1.95866 12.6502 1.62532 11.0255C1.35718 9.52956 1.52161 7.98199 2.0968 6.58802C2.672 5.19406 3.63077 4.01959 4.84597 3.22041C7.05739 1.53487 9.76888 0.76732 12.4726 1.06153C16.8426 1.38089 20.626 4.42124 21.3204 8.13859C21.4203 8.61312 21.4804 9.09612 21.5 9.58202Z" stroke="#8895A7" stroke-width="1.5" stroke-miterlimit="10"/>
<circle cx="11.5" cy="10" r="3.25" stroke="#8694A6" stroke-width="1.5"/>
</svg>
