<svg width="22" height="17" viewBox="0 0 22 17" fill="none" xmlns="http://www.w3.org/2000/svg">
<path d="M20.9258 10.0409V2.75868C20.9251 2.29266 20.7398 1.8459 20.4104 1.51626C20.081 1.18662 19.6343 1.00098 19.1683 1H3.33407C2.86763 1.00033 2.42036 1.18568 2.09042 1.51539C1.76048 1.8451 1.57482 2.29224 1.57416 2.75868V10.0397C1.30768 10.193 1.08617 10.4136 0.931839 10.6795C0.777505 10.9453 0.695769 11.2471 0.694824 11.5545L0.694824 13.3157C0.695476 13.7819 0.880974 14.2288 1.21065 14.5585C1.54032 14.8882 1.98727 15.0737 2.4535 15.0744V16.3946C2.4535 16.5112 2.49982 16.623 2.58228 16.7055C2.66473 16.7879 2.77656 16.8343 2.89317 16.8343H3.77374C3.85567 16.8339 3.93587 16.8106 4.00529 16.7671C4.07471 16.7236 4.13058 16.6615 4.16661 16.5879L4.92403 15.0719H17.5747L18.3321 16.5879C18.3681 16.6615 18.424 16.7236 18.4934 16.7671C18.5628 16.8106 18.643 16.8339 18.725 16.8343H19.6043C19.7209 16.8343 19.8327 16.7879 19.9152 16.7055C19.9977 16.623 20.044 16.5112 20.044 16.3946V15.0731C20.5104 15.0731 20.9578 14.8881 21.288 14.5586C21.6182 14.2291 21.8041 13.7821 21.8051 13.3157V11.5545C21.804 11.2473 21.7221 10.9458 21.5678 10.6802C21.4135 10.4145 21.1921 10.1941 20.9258 10.0409ZM2.45227 2.75991C2.4526 2.5268 2.54535 2.30332 2.71018 2.13848C2.87502 1.97364 3.09849 1.88089 3.33161 1.88057H19.1683C19.4014 1.88089 19.6249 1.97364 19.7898 2.13848C19.9546 2.30332 20.0473 2.5268 20.0477 2.75991V9.79708H18.922C18.975 9.73304 19.0341 9.67393 19.0834 9.60988C19.1353 9.53617 19.1632 9.44821 19.1632 9.35803C19.1632 9.26785 19.1353 9.17989 19.0834 9.10618C18.885 8.7918 18.6132 8.53035 18.2914 8.34434C17.9696 8.15833 17.6074 8.05334 17.236 8.0384H14.0561C13.6847 8.05334 13.3225 8.15833 13.0007 8.34434C12.6789 8.53035 12.4071 8.7918 12.2087 9.10618C12.1568 9.17989 12.1289 9.26785 12.1289 9.35803C12.1289 9.44821 12.1568 9.53617 12.2087 9.60988C12.258 9.68008 12.3171 9.73304 12.3701 9.79708H10.1286C10.1816 9.73304 10.2407 9.67393 10.29 9.60988C10.3419 9.53617 10.3698 9.44821 10.3698 9.35803C10.3698 9.26785 10.3419 9.17989 10.29 9.10618C10.0916 8.7918 9.81986 8.53035 9.49804 8.34434C9.17623 8.15833 8.81402 8.05334 8.44261 8.0384H5.26024C4.88884 8.05334 4.52663 8.15833 4.20481 8.34434C3.883 8.53035 3.61122 8.7918 3.41289 9.10618C3.36095 9.17989 3.33306 9.26785 3.33306 9.35803C3.33306 9.44821 3.36095 9.53617 3.41289 9.60988C3.46216 9.68008 3.52127 9.73304 3.57423 9.79708H2.4535L2.45227 2.75991ZM18.1584 9.35619C18.0431 9.48854 17.9018 9.59584 17.7434 9.67146C17.5849 9.74708 17.4127 9.78941 17.2372 9.79585H14.0561C13.8807 9.78941 13.7084 9.74708 13.5499 9.67146C13.3915 9.59584 13.2502 9.48854 13.1349 9.35619C13.2502 9.22384 13.3915 9.11653 13.5499 9.04091C13.7084 8.96529 13.8807 8.92296 14.0561 8.91652H17.2397C17.4149 8.92312 17.587 8.96554 17.7452 9.04116C17.9034 9.11677 18.0445 9.22399 18.1597 9.35619H18.1584ZM9.36259 9.35619C9.24724 9.48854 9.10598 9.59584 8.94754 9.67146C8.78909 9.74708 8.61683 9.78941 8.44138 9.79585H5.26024C5.0848 9.78941 4.91253 9.74708 4.75409 9.67146C4.59565 9.59584 4.45439 9.48854 4.33903 9.35619C4.45439 9.22384 4.59565 9.11653 4.75409 9.04091C4.91253 8.96529 5.0848 8.92296 5.26024 8.91652H8.44385C8.61908 8.92312 8.79111 8.96554 8.94933 9.04116C9.10755 9.11677 9.24861 9.22399 9.36383 9.35619H9.36259ZM3.50033 15.9525H3.33407V15.0731H3.94247L3.50033 15.9525ZM19.1646 15.9525H18.9959L18.5562 15.0731H19.1683L19.1646 15.9525ZM20.9258 13.3157C20.9255 13.5488 20.8327 13.7723 20.6679 13.9371C20.503 14.1019 20.2796 14.1947 20.0464 14.195H2.4535C2.22039 14.1947 1.99691 14.1019 1.83208 13.9371C1.66724 13.7723 1.57449 13.5488 1.57416 13.3157V11.5545C1.57449 11.3214 1.66724 11.0979 1.83208 10.9331C1.99691 10.7683 2.22039 10.6755 2.4535 10.6752H20.0452C20.2783 10.6755 20.5018 10.7683 20.6666 10.9331C20.8315 11.0979 20.9242 11.3214 20.9245 11.5545L20.9258 13.3157Z" fill="#006EFF" stroke="#006EFF" stroke-width="0.1"/>
</svg>
