<svg width="18" height="15" viewBox="0 0 18 15" fill="none" xmlns="http://www.w3.org/2000/svg">
<path d="M3.73112 0.586417C3.65681 0.502644 3.5666 0.434455 3.46573 0.385801C3.36487 0.337147 3.25535 0.308996 3.14353 0.30298C3.0317 0.296964 2.91979 0.313202 2.81429 0.350754C2.70879 0.388306 2.61179 0.446425 2.52891 0.521741C2.44604 0.597057 2.37893 0.688073 2.33149 0.789515C2.28405 0.890956 2.25722 1.0008 2.25254 1.11269C2.24787 1.22458 2.26544 1.33629 2.30426 1.44133C2.34307 1.54638 2.40235 1.64267 2.47866 1.72464L3.607 2.96935C1.17753 4.58712 0.123227 6.9087 0.0724515 7.018C0.0246752 7.12632 0 7.24341 0 7.3618C0 7.48019 0.0246752 7.59727 0.0724515 7.70559C0.0985446 7.76342 0.716316 9.13436 2.08162 10.499C3.90672 12.3219 6.20785 13.2853 8.74663 13.2853C9.98051 13.2921 11.2033 13.0523 12.3432 12.5801L13.76 14.1386C13.9118 14.3016 14.1216 14.3982 14.3441 14.4075C14.5666 14.4168 14.7838 14.338 14.9486 14.1882C15.1134 14.0385 15.2125 13.8298 15.2245 13.6074C15.2364 13.3851 15.1603 13.167 15.0125 13.0004L3.73112 0.586417ZM8.74663 11.5928C6.65989 11.5928 4.83479 10.8361 3.3228 9.34452C2.72806 8.75563 2.2163 8.08847 1.80165 7.36145C2.1733 6.70489 3.12675 5.25284 4.76356 4.23804L11.1169 11.2275C10.3507 11.4721 9.55093 11.5954 8.74663 11.5928ZM17.4208 7.70559C17.3954 7.76272 16.7861 9.11603 15.4462 10.4672C15.3695 10.5524 15.2762 10.6211 15.1722 10.6691C15.0681 10.7172 14.9553 10.7436 14.8407 10.7467C14.7262 10.7499 14.6121 10.7297 14.5056 10.6875C14.399 10.6452 14.3021 10.5818 14.2208 10.501C14.1395 10.4201 14.0755 10.3236 14.0326 10.2173C13.9897 10.111 13.9689 9.99711 13.9714 9.8825C13.9739 9.7679 13.9996 9.65499 14.047 9.55063C14.0945 9.44627 14.1626 9.35264 14.2473 9.27541C14.8102 8.70314 15.2957 8.0597 15.6916 7.36145C15.2772 6.63426 14.7654 5.96707 14.1705 5.37837C12.6578 3.88684 10.8334 3.13014 8.74663 3.13014C8.51038 3.13014 8.27414 3.14001 8.04141 3.15976C7.92927 3.17177 7.81585 3.16125 7.70783 3.1288C7.5998 3.09635 7.49936 3.04264 7.41239 2.97082C7.32542 2.899 7.25369 2.81052 7.20141 2.71057C7.14913 2.61063 7.11735 2.50125 7.10795 2.38885C7.09855 2.27645 7.11171 2.16331 7.14666 2.05607C7.18161 1.94884 7.23765 1.84967 7.31148 1.76439C7.3853 1.67912 7.47543 1.60947 7.57656 1.55953C7.67769 1.50959 7.78779 1.48037 7.90037 1.47358C8.17752 1.4496 8.46455 1.43762 8.74663 1.43762C11.2854 1.43762 13.5865 2.40165 15.4102 4.22464C16.7748 5.58923 17.3926 6.96088 17.4187 7.018C17.4668 7.12618 17.4918 7.24319 17.4922 7.36158C17.4926 7.47996 17.4683 7.59713 17.4208 7.70559Z" fill="#6A6A6A"/>
</svg>
