<svg width="25" height="25" viewBox="0 0 25 25" fill="none" xmlns="http://www.w3.org/2000/svg">
<path d="M3.12988 6.22895V22.4242C3.12988 23.1298 3.72364 23.989 4.45468 23.989H20.3993C21.1284 23.989 21.8499 23.1298 21.8499 22.4242V6.22895H3.12988ZM12.4707 19.0814C9.65788 19.0814 7.3774 16.8763 7.3774 14.1552C7.3774 11.4341 9.65788 9.22895 12.4707 9.22895C15.2835 9.22895 17.564 11.4341 17.564 14.1552C17.564 16.8768 15.2835 19.0814 12.4707 19.0814ZM20.3993 1.42896H4.45468C3.72364 1.42896 3.12988 1.9248 3.12988 2.63136V5.26895H21.8499V2.63136C21.8499 1.9248 21.1284 1.42896 20.3993 1.42896ZM9.36988 4.30895H4.08988V2.38896H9.36988V4.30895ZM18.56 4.17455C17.9604 4.17455 17.4761 3.70464 17.4761 3.12432C17.4761 2.54496 17.9604 2.07504 18.56 2.07504C19.1595 2.07504 19.6452 2.54496 19.6452 3.12432C19.6448 3.70415 19.1595 4.17455 18.56 4.17455Z" fill="#006EFF"/>
</svg>
