<svg width="8" height="11" viewBox="0 0 8 11" fill="none" xmlns="http://www.w3.org/2000/svg">
<path id="Vector" d="M4 0.222168C2.93952 0.223397 1.92283 0.637693 1.17296 1.37418C0.423084 2.11066 0.00125533 3.10919 4.25559e-06 4.15074C-0.00126589 5.00189 0.281815 5.82995 0.805822 6.50788C0.805822 6.50788 0.914912 6.64895 0.932731 6.66931L4 10.2222L7.06872 6.66753C7.08472 6.6486 7.19418 6.50788 7.19418 6.50788L7.19454 6.50681C7.71829 5.82917 8.00124 5.0015 8 4.15074C7.99874 3.10919 7.57692 2.11066 6.82704 1.37418C6.07717 0.637693 5.06048 0.223397 4 0.222168ZM4 5.57931C3.71232 5.57931 3.4311 5.49553 3.1919 5.33855C2.9527 5.18158 2.76627 4.95847 2.65618 4.69743C2.54609 4.43639 2.51728 4.14915 2.5734 3.87204C2.62953 3.59492 2.76806 3.34038 2.97148 3.14059C3.1749 2.9408 3.43408 2.80474 3.71623 2.74962C3.99839 2.6945 4.29085 2.72279 4.55663 2.83091C4.82241 2.93904 5.04958 3.12214 5.20941 3.35707C5.36924 3.592 5.45454 3.86819 5.45454 4.15074C5.45406 4.52948 5.30066 4.89256 5.02799 5.16037C4.75531 5.42818 4.38562 5.57884 4 5.57931Z" fill="#415770"/>
</svg>
