<svg width="59" height="72" viewBox="0 0 59 72" fill="none" xmlns="http://www.w3.org/2000/svg">
<path id="Vector" d="M56.3998 34.0074L37.6385 19.0061L37.3424 16.5853C37.2246 15.5137 37.0353 14.4512 36.7758 13.4048C35.9663 9.74788 34.253 6.35225 31.7925 3.52838C29.2172 0.695517 26.101 -0.502001 23.1909 0.180462C20.2808 0.862925 18.0402 3.32237 17.023 7.08235C16.0953 10.7023 16.0953 14.4977 17.023 18.1176C17.2545 19.1105 17.5514 20.0869 17.9115 21.0407L1.71264 34.0074C0.746858 34.791 0.131021 35.9255 3.96818e-05 37.1622C-0.116384 38.1852 0.11007 39.2178 0.643873 40.0981L1.04305 40.6003L1.4036 41.051C2.27439 41.8812 3.43248 42.3426 4.63564 42.3386H6.91481V66.0188C6.91819 67.4841 7.50087 68.8885 8.53574 69.9258C9.5706 70.9631 10.9737 71.549 12.4389 71.5558H45.5706C47.037 71.549 48.4414 70.9635 49.4783 69.9266C50.5152 68.8897 51.1007 67.4852 51.1075 66.0188V42.3386H53.3867C54.6344 42.3386 55.8312 41.8439 56.7146 40.9628C57.5981 40.0818 58.0961 38.8864 58.0995 37.6387C58.1015 36.9455 57.9502 36.2605 57.6563 35.6327C57.3625 35.0049 56.9334 34.4499 56.3998 34.0074ZM21.6328 11.0741C21.6936 10.2245 21.8402 9.38321 22.0706 8.56316C22.5728 6.76043 23.4227 5.60152 24.3884 5.35687C24.5255 5.3436 24.6635 5.3436 24.8005 5.35687C26.0378 5.53601 27.1536 6.19814 27.9038 7.19824C29.699 9.28804 30.9546 11.786 31.5607 14.4735C30.5536 14.0036 29.4352 13.8245 28.3317 13.9564C27.2281 14.0884 26.1835 14.5262 25.3156 15.2204L22.3411 17.5768C22.3411 17.3708 22.2509 17.1648 22.1865 16.933C21.7597 15.2069 21.5691 13.4309 21.62 11.6536C21.62 11.4218 21.62 11.2544 21.62 11.1643L21.6328 11.0741ZM48.5193 37.1236C47.8424 37.143 47.1986 37.4206 46.7198 37.8994C46.241 38.3783 45.9634 39.0221 45.944 39.6989V66.0188C45.944 66.0871 45.9168 66.1526 45.8685 66.2009C45.8202 66.2492 45.7547 66.2764 45.6864 66.2764H12.5162C12.4813 66.2781 12.4464 66.2727 12.4136 66.2606C12.3809 66.2484 12.351 66.2297 12.3257 66.2056C12.3004 66.1815 12.2802 66.1526 12.2665 66.1204C12.2528 66.0883 12.2457 66.0538 12.2457 66.0188V39.6861C12.2263 39.0092 11.9487 38.3654 11.4699 37.8866C10.9911 37.4077 10.3473 37.1302 9.67041 37.1107H6.43837L20.4224 25.8565C20.9248 26.5993 21.4799 27.3051 22.0835 27.9683C22.5337 28.459 23.0201 28.9153 23.5386 29.3332L23.6802 29.4491V29.5392C23.6802 29.6165 23.6802 29.7324 23.6802 29.874C23.6802 30.0157 23.6802 30.0543 23.6802 30.1573C23.6802 30.2603 23.7446 30.4406 23.7832 30.608C23.8399 30.8263 23.9087 31.0412 23.9893 31.2518C24.3962 32.2579 25.0938 33.1198 25.9928 33.7276C26.8919 34.3354 27.9517 34.6615 29.0369 34.6642C29.7535 34.6686 30.4639 34.5309 31.127 34.2591C31.7901 33.9872 32.3927 33.5866 32.8999 33.0803C33.4096 32.575 33.8134 31.9731 34.0876 31.3097C34.3617 30.6464 34.5008 29.9351 34.4966 29.2173C34.5001 28.4997 34.3607 27.7886 34.0866 27.1253C33.8124 26.4621 33.409 25.8601 32.8999 25.3543C32.3935 24.8469 31.7911 24.4455 31.1278 24.1736C30.4646 23.9017 29.7537 23.7646 29.0369 23.7705C27.9064 23.769 26.8037 24.1201 25.8821 24.7749C25.311 24.1046 24.7943 23.3898 24.3369 22.6373L28.6249 19.1864C28.7435 19.0857 28.8941 19.0304 29.0498 19.0304C29.2054 19.0304 29.356 19.0857 29.4747 19.1864L51.8157 37.0721L48.5193 37.1236Z" fill="#308DFF"/>
</svg>
