<svg width="25" height="25" viewBox="0 0 25 25" fill="none" xmlns="http://www.w3.org/2000/svg">
<path d="M4.75 12.949C6.13071 12.949 7.25 11.8297 7.25 10.449C7.25 9.06826 6.13071 7.94897 4.75 7.94897C3.36929 7.94897 2.25 9.06826 2.25 10.449C2.25 11.8297 3.36929 12.949 4.75 12.949Z" fill="#006EFF"/>
<path d="M9.25 8.94897C10.6307 8.94897 11.75 7.82969 11.75 6.44897C11.75 5.06826 10.6307 3.94897 9.25 3.94897C7.86929 3.94897 6.75 5.06826 6.75 6.44897C6.75 7.82969 7.86929 8.94897 9.25 8.94897Z" fill="#006EFF"/>
<path d="M15.25 8.94897C16.6307 8.94897 17.75 7.82969 17.75 6.44897C17.75 5.06826 16.6307 3.94897 15.25 3.94897C13.8693 3.94897 12.75 5.06826 12.75 6.44897C12.75 7.82969 13.8693 8.94897 15.25 8.94897Z" fill="#006EFF"/>
<path d="M19.75 12.949C21.1307 12.949 22.25 11.8297 22.25 10.449C22.25 9.06826 21.1307 7.94897 19.75 7.94897C18.3693 7.94897 17.25 9.06826 17.25 10.449C17.25 11.8297 18.3693 12.949 19.75 12.949Z" fill="#006EFF"/>
<path d="M17.5901 15.809C16.7201 14.789 15.9901 13.919 15.1101 12.899C14.6501 12.359 14.0601 11.819 13.3601 11.579C13.2501 11.539 13.1401 11.509 13.0301 11.489C12.7801 11.449 12.5101 11.449 12.2501 11.449C11.9901 11.449 11.7201 11.449 11.4601 11.499C11.3501 11.519 11.2401 11.549 11.1301 11.589C10.4301 11.829 9.85014 12.369 9.38014 12.909C8.51014 13.929 7.78014 14.799 6.90014 15.819C5.59014 17.129 3.98014 18.579 4.28014 20.609C4.57014 21.629 5.30014 22.639 6.61014 22.929C7.34014 23.079 9.67014 22.489 12.1501 22.489H12.3301C14.8101 22.489 17.1401 23.069 17.8701 22.929C19.1801 22.639 19.9101 21.619 20.2001 20.609C20.5101 18.569 18.9001 17.119 17.5901 15.809Z" fill="#006EFF"/>
</svg>
