<svg width="18" height="20" viewBox="0 0 18 20" fill="none" xmlns="http://www.w3.org/2000/svg">
<path d="M14.4431 18.9205C13.3876 19.9437 12.2351 19.7821 11.1257 19.2975C9.95173 18.802 8.87465 18.7805 7.63601 19.2975C6.08502 19.9652 5.26644 19.7714 4.34015 18.9205C-0.91598 13.5028 -0.140485 5.25238 5.82652 4.95079C7.28058 5.02619 8.29303 5.74783 9.14392 5.81246C10.4149 5.55396 11.632 4.81077 12.9891 4.90771C14.6155 5.03696 15.8433 5.68321 16.6511 6.84645C13.2907 8.86058 14.0877 13.2874 17.1681 14.526C16.5542 16.1416 15.7572 17.7465 14.4324 18.9313L14.4431 18.9205ZM9.03621 4.88617C8.87465 2.48429 10.8242 0.502468 13.0645 0.308594C13.3768 3.08745 10.5441 5.15544 9.03621 4.88617Z" fill="#616161"/>
</svg>
