<svg width="24" height="25" viewBox="0 0 24 25" fill="none" xmlns="http://www.w3.org/2000/svg">
<g id="tabler:calendar-up">
<path id="Vector" d="M12.5 21.2222H6C5.46957 21.2222 4.96086 21.0115 4.58579 20.6364C4.21071 20.2613 4 19.7526 4 19.2222V7.22217C4 6.69173 4.21071 6.18303 4.58579 5.80795C4.96086 5.43288 5.46957 5.22217 6 5.22217H18C18.5304 5.22217 19.0391 5.43288 19.4142 5.80795C19.7893 6.18303 20 6.69173 20 7.22217V12.2222M16 3.22217V7.22217M8 3.22217V7.22217M4 11.2222H20M19 22.2222V16.2222M19 16.2222L22 19.2222M19 16.2222L16 19.2222" stroke="#006EFF" stroke-width="1.5" stroke-linecap="round" stroke-linejoin="round"/>
</g>
</svg>
