<svg width="15" height="19" viewBox="0 0 15 19" fill="none" xmlns="http://www.w3.org/2000/svg">
<g clip-path="url(#clip0_4340_20108)">
<path d="M7.04363 11.0831C8.3403 11.0831 9.39145 10.0319 9.39145 8.73528C9.39145 7.43861 8.3403 6.38745 7.04363 6.38745C5.74696 6.38745 4.6958 7.43861 4.6958 8.73528C4.6958 10.0319 5.74696 11.0831 7.04363 11.0831Z" stroke="#2A2B3F" stroke-width="1.3" stroke-linecap="round" stroke-linejoin="round"/>
<path d="M7.04358 2.47437C5.3831 2.47437 3.79062 3.13399 2.61648 4.30813C1.44234 5.48227 0.782715 7.07475 0.782715 8.73523C0.782715 10.2159 1.09732 11.1848 1.95663 12.257L7.04358 18.1265L12.1305 12.257C12.9898 11.1848 13.3045 10.2159 13.3045 8.73523C13.3045 7.07475 12.6448 5.48227 11.4707 4.30813C10.2965 3.13399 8.70407 2.47437 7.04358 2.47437Z" stroke="#2A2B3F" stroke-width="1.3" stroke-linecap="round" stroke-linejoin="round"/>
</g>
<defs>
<clipPath id="clip0_4340_20108">
<rect width="14.087" height="18" fill="white" transform="translate(0 0.948975)"/>
</clipPath>
</defs>
</svg>
