<svg width="20" height="21" viewBox="0 0 20 21" fill="none" xmlns="http://www.w3.org/2000/svg">
<g id="heroicons:arrow-up-20-solid">
<path id="Vector" fill-rule="evenodd" clip-rule="evenodd" d="M17 10.2221C17 10.421 16.921 10.6117 16.7803 10.7524C16.6397 10.893 16.4489 10.9721 16.25 10.9721L5.61201 10.9721L9.77001 14.9321C9.9064 15.0715 9.98312 15.2585 9.9839 15.4536C9.98467 15.6486 9.90943 15.8363 9.77414 15.9768C9.63885 16.1173 9.45416 16.1995 9.25923 16.2061C9.0643 16.2127 8.87447 16.1431 8.73001 16.0121L3.23001 10.7621C3.15742 10.6921 3.09968 10.6082 3.06025 10.5154C3.02081 10.4226 3.00049 10.3229 3.00049 10.2221C3.00049 10.1212 3.02081 10.0215 3.06025 9.92868C3.09968 9.83589 3.15742 9.75202 3.23001 9.68205L8.73001 4.43205C8.8002 4.3603 8.88408 4.30338 8.97668 4.26464C9.06928 4.22591 9.16871 4.20615 9.26908 4.20655C9.36945 4.20694 9.46873 4.22749 9.56101 4.26695C9.6533 4.30642 9.73673 4.36401 9.80635 4.43631C9.87598 4.50861 9.93038 4.59415 9.96634 4.68786C10.0023 4.78158 10.0191 4.88155 10.0157 4.98187C10.0123 5.08218 9.98881 5.1808 9.9466 5.27187C9.9044 5.36294 9.84435 5.44462 9.77001 5.51205L5.61201 9.47205L16.25 9.47205C16.4489 9.47205 16.6397 9.55107 16.7803 9.69172C16.921 9.83237 17 10.0231 17 10.2221Z" fill="black"/>
</g>
</svg>
