<svg width="24" height="25" viewBox="0 0 24 25" fill="none" xmlns="http://www.w3.org/2000/svg">
<path d="M19 4.44873H5C4.20435 4.44873 3.44129 4.7648 2.87868 5.32741C2.31607 5.89002 2 6.65308 2 7.44873V17.4487C2 18.2444 2.31607 19.0074 2.87868 19.5701C3.44129 20.1327 4.20435 20.4487 5 20.4487H19C19.7956 20.4487 20.5587 20.1327 21.1213 19.5701C21.6839 19.0074 22 18.2444 22 17.4487V7.44873C22 6.65308 21.6839 5.89002 21.1213 5.32741C20.5587 4.7648 19.7956 4.44873 19 4.44873ZM19 6.44873L12.5 10.9187C12.348 11.0065 12.1755 11.0527 12 11.0527C11.8245 11.0527 11.652 11.0065 11.5 10.9187L5 6.44873H19Z" fill="#006EFF"/>
</svg>
