<svg width="25" height="25" viewBox="0 0 25 25" fill="none" xmlns="http://www.w3.org/2000/svg">
<path d="M21.522 14.1041L20.154 10.0001C19.9556 9.40255 19.5738 8.88277 19.0631 8.51458C18.5524 8.14639 17.9386 7.94851 17.309 7.94907H8.191C7.56139 7.94851 6.94761 8.14639 6.43688 8.51458C5.92615 8.88277 5.54445 9.40255 5.346 10.0001L3.978 14.1041C3.6143 14.2564 3.30371 14.5128 3.08523 14.841C2.86676 15.1693 2.75013 15.5548 2.75 15.9491V18.9491C2.75 19.6871 3.154 20.3251 3.75 20.6721V21.9491C3.75 22.2143 3.85536 22.4686 4.04289 22.6562C4.23043 22.8437 4.48478 22.9491 4.75 22.9491H5.75C6.01522 22.9491 6.26957 22.8437 6.45711 22.6562C6.64464 22.4686 6.75 22.2143 6.75 21.9491V20.9491H18.75V21.9491C18.75 22.2143 18.8554 22.4686 19.0429 22.6562C19.2304 22.8437 19.4848 22.9491 19.75 22.9491H20.75C21.0152 22.9491 21.2696 22.8437 21.4571 22.6562C21.6446 22.4686 21.75 22.2143 21.75 21.9491V20.6721C22.0534 20.4981 22.3056 20.2472 22.4811 19.9447C22.6567 19.6422 22.7494 19.2988 22.75 18.9491V15.9491C22.75 15.1181 22.243 14.4071 21.522 14.1041ZM8.191 9.94907H17.308C17.518 9.94902 17.7226 10.0151 17.893 10.1378C18.0633 10.2606 18.1907 10.4339 18.257 10.6331L19.363 13.9491H6.137L7.242 10.6331C7.379 10.2241 7.761 9.94907 8.191 9.94907ZM6.25 18.9491C6.05295 18.949 5.85785 18.9101 5.67582 18.8347C5.4938 18.7592 5.32842 18.6486 5.18913 18.5092C4.90783 18.2277 4.74987 17.846 4.75 17.4481C4.75013 17.0501 4.90835 16.6685 5.18984 16.3872C5.47133 16.1059 5.85304 15.9479 6.251 15.9481C6.64896 15.9482 7.03056 16.1064 7.31187 16.3879C7.59317 16.6694 7.75113 17.0511 7.751 17.4491C7.75087 17.847 7.59265 18.2286 7.31116 18.5099C7.02967 18.7912 6.64796 18.9492 6.25 18.9491ZM19.25 18.9491C18.852 18.9489 18.4704 18.7907 18.1891 18.5092C17.9078 18.2277 17.7499 17.846 17.75 17.4481C17.7501 17.0501 17.9083 16.6685 18.1898 16.3872C18.4713 16.1059 18.853 15.9479 19.251 15.9481C19.649 15.9482 20.0306 16.1064 20.3119 16.3879C20.5932 16.6694 20.7511 17.0511 20.751 17.4491C20.7509 17.847 20.5927 18.2286 20.3112 18.5099C20.0297 18.7912 19.648 18.9492 19.25 18.9491ZM9.75 5.32707C9.755 4.23907 8.713 3.27607 8.363 2.98307C8.33118 2.95602 8.29077 2.94116 8.249 2.94116C8.20723 2.94116 8.16682 2.95602 8.135 2.98307C7.783 3.27407 6.745 4.22007 6.75 5.32607C6.75 6.22107 7.423 6.94907 8.25 6.94907C9.077 6.94907 9.75 6.22107 9.75 5.32707ZM14.25 5.32707C14.255 4.23907 13.213 3.27507 12.863 2.98307C12.8312 2.95602 12.7908 2.94116 12.749 2.94116C12.7072 2.94116 12.6668 2.95602 12.635 2.98307C12.282 3.27407 11.244 4.22107 11.249 5.32707C11.25 6.22107 11.923 6.94907 12.75 6.94907C13.577 6.94907 14.25 6.22107 14.25 5.32707ZM18.75 5.32707C18.755 4.23907 17.713 3.27507 17.363 2.98307C17.3312 2.95602 17.2908 2.94116 17.249 2.94116C17.2072 2.94116 17.1668 2.95602 17.135 2.98307C16.783 3.27407 15.745 4.22007 15.75 5.32607C15.75 6.22107 16.423 6.94907 17.25 6.94907C18.077 6.94907 18.75 6.22107 18.75 5.32707Z" fill="#006EFF"/>
</svg>
