<svg width="13" height="10" viewBox="0 0 13 10" fill="none" xmlns="http://www.w3.org/2000/svg">
<g id="Group 41">
<g id="svgviewer-output (7)">
<path id="Path 51" fill-rule="evenodd" clip-rule="evenodd" d="M0 1.19722C0 0.885587 0.123794 0.586722 0.34415 0.366367C0.564505 0.146012 0.863371 0.0222168 1.175 0.0222168H11.3623C11.6739 0.0222168 11.9727 0.146012 12.1931 0.366367C12.4135 0.586722 12.5373 0.885587 12.5373 1.19722V8.24722C12.5373 8.55884 12.4135 8.85771 12.1931 9.07807C11.9727 9.29842 11.6739 9.42222 11.3623 9.42222H1.175C0.86384 9.42222 0.565384 9.2988 0.345107 9.07903C0.124829 8.85926 0.000718062 8.56109 0 8.24993L0 1.19722ZM1.175 0.805852C1.0712 0.805852 0.971658 0.847084 0.898263 0.920479C0.824868 0.993874 0.783635 1.09342 0.783635 1.19722V8.24722C0.783635 8.29861 0.793758 8.3495 0.813426 8.39699C0.833093 8.44447 0.861921 8.48761 0.898263 8.52395C0.934605 8.5603 0.977748 8.58912 1.02523 8.60879C1.07271 8.62846 1.12361 8.63858 1.175 8.63858H11.3623C11.465 8.63764 11.5632 8.59636 11.6357 8.52365C11.7082 8.45094 11.7493 8.35263 11.75 8.24993V1.19993C11.75 1.09613 11.7088 0.996586 11.6354 0.923191C11.562 0.849796 11.4624 0.808564 11.3586 0.808564L1.175 0.805852Z" fill="#122D4D"/>
<path id="Path 52" fill-rule="evenodd" clip-rule="evenodd" d="M1.56738 1.98187C1.56726 1.9304 1.5773 1.87941 1.59692 1.83182C1.61653 1.78423 1.64534 1.74098 1.68169 1.70455C1.71805 1.66811 1.76123 1.6392 1.80877 1.61948C1.85631 1.59975 1.90728 1.5896 1.95875 1.5896H4.30875C4.41267 1.5896 4.51233 1.63088 4.58581 1.70436C4.65929 1.77784 4.70057 1.8775 4.70057 1.98142C4.70057 2.08533 4.65929 2.18499 4.58581 2.25847C4.51233 2.33195 4.41267 2.37323 4.30875 2.37323H2.35102V4.33187C2.35102 4.43579 2.30974 4.53545 2.23626 4.60893C2.16278 4.68241 2.06312 4.72369 1.9592 4.72369C1.85529 4.72369 1.75563 4.68241 1.68215 4.60893C1.60867 4.53545 1.56738 4.43579 1.56738 4.33187V1.98187ZM10.9674 7.46731C10.9674 7.51878 10.9572 7.56975 10.9375 7.61729C10.9178 7.66483 10.8889 7.70802 10.8524 7.74437C10.816 7.78072 10.7727 7.80953 10.7252 7.82915C10.6776 7.84876 10.6266 7.8588 10.5751 7.85868H8.22512C8.1212 7.85868 8.02154 7.8174 7.94806 7.74392C7.87458 7.67044 7.8333 7.57077 7.8333 7.46686C7.8333 7.36294 7.87458 7.26328 7.94806 7.1898C8.02154 7.11632 8.1212 7.07504 8.22512 7.07504H10.1838V5.11641C10.1838 5.01249 10.225 4.91283 10.2985 4.83935C10.372 4.76587 10.4717 4.72459 10.5756 4.72459C10.6795 4.72459 10.7791 4.76587 10.8526 4.83935C10.9261 4.91283 10.9674 5.01249 10.9674 5.11641V7.46731Z" fill="#122D4D"/>
</g>
</g>
</svg>
