<svg width="14" height="11" viewBox="0 0 14 11" fill="none" xmlns="http://www.w3.org/2000/svg">
<g id="bed">
<g id="Group 37">
<path id="Path 50" d="M13.1311 6.42177V1.8885C13.1307 1.5984 13.0153 1.32028 12.8102 1.11508C12.6052 0.909874 12.3271 0.794309 12.037 0.793701H2.18007C1.8897 0.793904 1.61127 0.909286 1.40588 1.11453C1.20049 1.31978 1.08491 1.59813 1.08451 1.8885V6.421C0.918619 6.51641 0.780728 6.65376 0.684653 6.81927C0.588579 6.98478 0.537698 7.17263 0.537109 7.364L0.537109 8.46032C0.537515 8.75056 0.652989 9.02878 0.858215 9.23401C1.06344 9.43924 1.34167 9.55471 1.6319 9.55512V10.377C1.6319 10.4496 1.66074 10.5192 1.71207 10.5705C1.7634 10.6218 1.83301 10.6507 1.9056 10.6507H2.45376C2.50477 10.6504 2.55469 10.636 2.5979 10.6089C2.64112 10.5818 2.6759 10.5431 2.69833 10.4973L3.16983 9.55359H11.045L11.5165 10.4973C11.5389 10.5431 11.5737 10.5818 11.6169 10.6089C11.6601 10.636 11.71 10.6504 11.761 10.6507H12.3084C12.381 10.6507 12.4506 10.6218 12.502 10.5705C12.5533 10.5192 12.5821 10.4496 12.5821 10.377V9.55435C12.8725 9.55435 13.151 9.43916 13.3565 9.23406C13.5621 9.02895 13.6779 8.75069 13.6785 8.46032V7.364C13.6777 7.17276 13.6268 6.98506 13.5307 6.8197C13.4347 6.65434 13.2968 6.51712 13.1311 6.42177ZM1.63114 1.88926C1.63134 1.74415 1.68908 1.60503 1.79169 1.50242C1.8943 1.3998 2.03342 1.34206 2.17853 1.34186H12.037C12.1822 1.34206 12.3213 1.3998 12.4239 1.50242C12.5265 1.60503 12.5842 1.74415 12.5844 1.88926V6.26997H11.8837C11.9167 6.2301 11.9535 6.1933 11.9841 6.15343C12.0165 6.10755 12.0338 6.05279 12.0338 5.99665C12.0338 5.94052 12.0165 5.88576 11.9841 5.83987C11.8607 5.64417 11.6915 5.48141 11.4912 5.36562C11.2908 5.24983 11.0654 5.18447 10.8341 5.17517H8.85463C8.62342 5.18447 8.39795 5.24983 8.19761 5.36562C7.99728 5.48141 7.8281 5.64417 7.70463 5.83987C7.6723 5.88576 7.65494 5.94052 7.65494 5.99665C7.65494 6.05279 7.6723 6.10755 7.70463 6.15343C7.7353 6.19713 7.7721 6.2301 7.80507 6.26997H6.40974C6.44271 6.2301 6.47951 6.1933 6.51017 6.15343C6.54251 6.10755 6.55987 6.05279 6.55987 5.99665C6.55987 5.94052 6.54251 5.88576 6.51017 5.83987C6.38671 5.64417 6.21753 5.48141 6.0172 5.36562C5.81686 5.24983 5.59138 5.18447 5.36018 5.17517H3.37913C3.14792 5.18447 2.92244 5.24983 2.72211 5.36562C2.52178 5.48141 2.35259 5.64417 2.22913 5.83987C2.1968 5.88576 2.17944 5.94052 2.17944 5.99665C2.17944 6.05279 2.1968 6.10755 2.22913 6.15343C2.2598 6.19713 2.2966 6.2301 2.32957 6.26997H1.6319L1.63114 1.88926ZM11.4084 5.99551C11.3366 6.0779 11.2486 6.14469 11.15 6.19176C11.0514 6.23884 10.9441 6.26519 10.8349 6.2692H8.85463C8.74541 6.26519 8.63818 6.23884 8.53954 6.19176C8.44091 6.14469 8.35297 6.0779 8.28116 5.99551C8.35297 5.91312 8.44091 5.84632 8.53954 5.79924C8.63818 5.75217 8.74541 5.72582 8.85463 5.72181H10.8364C10.9455 5.72592 11.0526 5.75233 11.1511 5.7994C11.2496 5.84647 11.3374 5.91321 11.4091 5.99551H11.4084ZM5.93288 5.99551C5.86107 6.0779 5.77313 6.14469 5.6745 6.19176C5.57587 6.23884 5.46863 6.26519 5.35942 6.2692H3.37913C3.26991 6.26519 3.16267 6.23884 3.06404 6.19176C2.96541 6.14469 2.87747 6.0779 2.80566 5.99551C2.87747 5.91312 2.96541 5.84632 3.06404 5.79924C3.16267 5.75217 3.26991 5.72582 3.37913 5.72181H5.36095C5.47003 5.72592 5.57712 5.75233 5.67562 5.7994C5.77411 5.84647 5.86192 5.91321 5.93364 5.99551H5.93288ZM2.28357 10.1017H2.18007V9.55435H2.5588L2.28357 10.1017ZM12.0347 10.1017H11.9297L11.656 9.55435H12.037L12.0347 10.1017ZM13.1311 8.46032C13.1309 8.60544 13.0731 8.74456 12.9705 8.84717C12.8679 8.94978 12.7288 9.00751 12.5837 9.00772H1.6319C1.48679 9.00751 1.34767 8.94978 1.24506 8.84717C1.14245 8.74456 1.08471 8.60544 1.08451 8.46032V7.364C1.08471 7.21888 1.14245 7.07976 1.24506 6.97715C1.34767 6.87454 1.48679 6.8168 1.6319 6.8166H12.5829C12.728 6.8168 12.8671 6.87454 12.9698 6.97715C13.0724 7.07976 13.1301 7.21888 13.1303 7.364L13.1311 8.46032Z" fill="#122D4D" stroke="#122D4D" stroke-width="0.1"/>
</g>
</g>
</svg>
