<svg width="23" height="23" viewBox="0 0 23 23" fill="none" xmlns="http://www.w3.org/2000/svg">
<g clip-path="url(#clip0_4340_20071)">
<path d="M15.6144 10.5714C16.0661 10.5726 16.5135 10.4843 16.9308 10.3114C17.3482 10.1385 17.727 9.88454 18.0455 9.56422L21.3541 6.25777C21.6158 5.99609 21.6399 5.57027 21.3906 5.2957C21.3281 5.22672 21.2521 5.17117 21.1675 5.13242C21.0828 5.09367 20.9911 5.07252 20.898 5.07027C20.8049 5.06802 20.7123 5.08471 20.6259 5.11933C20.5394 5.15394 20.4609 5.20576 20.3951 5.27164L17.4461 8.21844C17.3471 8.31733 17.2129 8.37288 17.0729 8.37288C16.933 8.37288 16.7988 8.31733 16.6997 8.21844C16.4939 8.01305 16.5051 7.66586 16.7105 7.46047L19.6465 4.52441C19.7124 4.4586 19.7641 4.3801 19.7987 4.29368C19.8333 4.20727 19.8499 4.11473 19.8477 4.02168C19.8454 3.92863 19.8243 3.83701 19.7856 3.75237C19.7469 3.66772 19.6914 3.59182 19.6225 3.52926C19.4981 3.41641 19.3358 3.35431 19.1679 3.35523C18.9775 3.35537 18.795 3.4311 18.6604 3.56578L15.7269 6.49883C15.6279 6.59772 15.4937 6.65327 15.3537 6.65327C15.2138 6.65327 15.0796 6.59772 14.9806 6.49883C14.7752 6.29344 14.7859 5.94625 14.9913 5.74086L17.9274 2.80566C17.9932 2.73985 18.0449 2.66135 18.0795 2.57493C18.1141 2.48852 18.1308 2.39598 18.1285 2.30293C18.1262 2.20988 18.1051 2.11826 18.0664 2.03362C18.0277 1.94897 17.9722 1.87307 17.9033 1.81051C17.7789 1.69766 17.6167 1.63556 17.4487 1.63648C17.2583 1.63671 17.0758 1.71243 16.9412 1.84703L13.6348 5.15348C13.3144 5.47203 13.0605 5.85098 12.8876 6.26837C12.7147 6.68576 12.6263 7.1333 12.6276 7.58508V7.93871C12.6277 8.02912 12.6099 8.11866 12.5753 8.2022C12.5407 8.28574 12.49 8.36164 12.4261 8.42555L10.896 9.95609C10.88 9.97207 10.861 9.98475 10.8402 9.9934C10.8193 10.0021 10.7969 10.0065 10.7744 10.0065C10.7518 10.0065 10.7294 10.0021 10.7085 9.9934C10.6877 9.98475 10.6687 9.97207 10.6527 9.95609L3.20712 2.51004C3.07862 2.38139 2.90438 2.30889 2.72254 2.3084C2.5407 2.30792 2.36608 2.37949 2.23689 2.50746C1.58591 3.15242 1.2383 4.06293 1.2383 5.14016C1.234 6.91906 2.169 8.96438 3.67849 10.4717L7.35017 14.1434C7.87203 14.6642 8.57915 14.9567 9.31642 14.9568C9.55146 14.9569 9.78554 14.9269 10.0129 14.8674C10.07 14.8525 10.1288 14.8448 10.1878 14.8447C10.3604 14.8447 10.5266 14.9099 10.6532 15.0273L11.1426 15.4793C11.2688 15.6083 11.3397 15.7814 11.3402 15.9618V16.1999C11.339 16.741 11.5517 17.2608 11.9319 17.6458L15.8013 21.5804L15.8051 21.5847C16.2346 22.0141 16.817 22.2553 17.4243 22.2553C18.0317 22.2553 18.6141 22.014 19.0435 21.5845C19.4729 21.1551 19.7141 20.5726 19.714 19.9653C19.714 19.358 19.4727 18.7756 19.0433 18.3462L13.2433 12.5463C13.2274 12.5303 13.2147 12.5113 13.206 12.4905C13.1974 12.4696 13.1929 12.4472 13.1929 12.4246C13.1929 12.4021 13.1974 12.3797 13.206 12.3588C13.2147 12.338 13.2274 12.319 13.2433 12.303L14.7735 10.7729C14.8373 10.709 14.9131 10.6583 14.9966 10.6238C15.0801 10.5892 15.1695 10.5714 15.2599 10.5714H15.6144Z" fill="#006EFF"/>
<path d="M9.31633 16.3317C8.21561 16.3294 7.16018 15.8932 6.37898 15.1178L5.78344 14.5223C5.719 14.458 5.63169 14.4219 5.54066 14.4219C5.44964 14.4219 5.36233 14.458 5.29789 14.5223L1.64555 18.1557C0.99457 18.8067 0.762109 19.7649 1.08437 20.7033C1.10241 20.7562 1.1238 20.8079 1.1484 20.858C1.58195 21.7457 2.42328 22.2614 3.34367 22.2614C3.66019 22.2621 3.97373 22.2001 4.2661 22.0788C4.55848 21.9576 4.82389 21.7795 5.04695 21.555L9.91789 16.6608C9.93839 16.6399 9.95409 16.6148 9.96389 16.5872C9.97368 16.5595 9.97734 16.5301 9.97461 16.501V16.4898C9.9727 16.463 9.96538 16.4369 9.9531 16.413C9.94082 16.3891 9.92383 16.3679 9.90315 16.3508C9.88247 16.3337 9.85853 16.3209 9.83278 16.3132C9.80703 16.3056 9.78 16.3032 9.75332 16.3063C9.6082 16.3224 9.46234 16.3309 9.31633 16.3317Z" fill="#006EFF"/>
</g>
<defs>
<clipPath id="clip0_4340_20071">
<rect width="22" height="22" fill="white" transform="translate(0.25 0.948975)"/>
</clipPath>
</defs>
</svg>
