<svg width="31" height="22" viewBox="0 0 31 22" fill="none" xmlns="http://www.w3.org/2000/svg">
<g clip-path="url(#clip0_4340_20078)">
<path d="M15.5811 0.948999H15.5417C10.1255 0.948999 5.19925 3.049 1.533 6.47812L1.54438 6.46762L0.875 7.0915L4.25425 10.4392L4.88425 9.86175C7.68513 7.27875 11.4415 5.69412 15.568 5.69412C19.6945 5.69412 23.4509 7.27787 26.2623 9.87137L26.2518 9.86175L26.8818 10.4392L30.261 7.0915L29.5916 6.46762C25.8056 2.91488 20.8063 0.941031 15.6144 0.948999H15.5785H15.5811Z" fill="#006EFF"/>
<path d="M24.8542 11.4753C22.3233 9.17259 19.0229 7.89925 15.6011 7.90529H15.0114L15.0052 7.91842C11.7717 8.045 8.6863 9.3079 6.292 11.4849L6.30337 11.4744L5.61475 12.0983L9.02112 15.4714L9.65112 14.9202C11.2182 13.5149 13.3007 12.6565 15.5836 12.6565C17.8665 12.6565 19.949 13.5158 21.5249 14.928L21.5161 14.921L22.1461 15.4723L25.5525 12.1L24.8542 11.4753Z" fill="#006EFF"/>
<path d="M15.5883 21.9489L20.3789 17.2108L19.6176 16.5869C18.468 15.6815 17.033 15.216 15.5708 15.2744H15.5821H15.5244C14.084 15.272 12.6817 15.7372 11.5283 16.6001L11.5458 16.5878L10.7915 17.2117L11.4871 17.9003L14.9521 21.3259L15.5883 21.9489Z" fill="#006EFF"/>
</g>
<defs>
<clipPath id="clip0_4340_20078">
<rect width="29.75" height="21" fill="white" transform="translate(0.875 0.948975)"/>
</clipPath>
</defs>
</svg>
