<svg width="14" height="14" viewBox="0 0 14 14" fill="none" xmlns="http://www.w3.org/2000/svg">
<path id="Vector" d="M13.4185 5.29984L9.26153 4.70674L7.40326 1.00828C7.3525 0.907016 7.269 0.825043 7.16585 0.775216C6.90717 0.649844 6.59282 0.75432 6.46348 1.00828L4.60521 4.70674L0.448251 5.29984C0.333644 5.31591 0.228861 5.36895 0.148636 5.44932C0.0516486 5.54718 -0.0017959 5.67885 4.60817e-05 5.81537C0.00188807 5.9519 0.0588658 6.08213 0.158459 6.17744L3.16607 9.05616L2.45551 13.1211C2.43885 13.2156 2.44951 13.3129 2.48628 13.4018C2.52305 13.4907 2.58446 13.5677 2.66355 13.6241C2.74264 13.6805 2.83625 13.714 2.93375 13.7209C3.03125 13.7277 3.12875 13.7076 3.21519 13.6628L6.93337 11.7436L10.6515 13.6628C10.7531 13.7158 10.8709 13.7335 10.9839 13.7142C11.2688 13.666 11.4603 13.4008 11.4112 13.1211L10.7007 9.05616L13.7083 6.17744C13.7901 6.09868 13.8442 5.99581 13.8605 5.8833C13.9047 5.60202 13.705 5.34163 13.4185 5.29984Z" fill="#EEA651"/>
</svg>
